<?xml version="1.0" encoding="utf-8" ?>
<svg baseProfile="tiny" height="1140.0" version="1.2" width="1140.0" xmlns="http://www.w3.org/2000/svg" xmlns:ev="http://www.w3.org/2001/xml-events" xmlns:xlink="http://www.w3.org/1999/xlink"><defs /><line stroke="rgb(0%,0%,0%)" stroke-width="1" x1="50.0" x2="358.3911" y1="50.0" y2="50.0" /><line stroke="rgb(0%,0%,0%)" stroke-width="1" x1="358.3911" x2="358.3911" y1="363.12" y2="336.9422" /><line stroke="rgb(0%,0%,0%)" stroke-width="1" x1="358.3911" x2="346.9067" y1="336.9422" y2="336.9422" /><line stroke="rgb(0%,0%,0%)" stroke-width="1" x1="346.9067" x2="346.9067" y1="336.9422" y2="309.92" /><line stroke="rgb(0%,0%,0%)" stroke-width="1" x1="346.9067" x2="358.3911" y1="309.92" y2="309.92" /><line stroke="rgb(0%,0%,0%)" stroke-width="1" x1="358.3911" x2="358.3911" y1="309.92" y2="282.8978" /><line stroke="rgb(0%,0%,0%)" stroke-width="1" x1="358.3911" x2="346.9067" y1="282.8978" y2="282.8978" /><line stroke="rgb(0%,0%,0%)" stroke-width="1" x1="346.9067" x2="346.9067" y1="282.8978" y2="255.8756" /><line stroke="rgb(0%,0%,0%)" stroke-width="1" x1="346.9067" x2="358.3911" y1="255.8756" y2="255.8756" /><line stroke="rgb(0%,0%,0%)" stroke-width="1" x1="358.3911" x2="358.3911" y1="255.8756" y2="228.8533" /><line stroke="rgb(0%,0%,0%)" stroke-width="1" x1="358.3911" x2="346.9067" y1="228.8533" y2="228.8533" /><line stroke="rgb(0%,0%,0%)" stroke-width="1" x1="346.9067" x2="346.9067" y1="228.8533" y2="201.8311" /><line stroke="rgb(0%,0%,0%)" stroke-width="1" x1="346.9067" x2="358.3911" y1="201.8311" y2="201.8311" /><line stroke="rgb(0%,0%,0%)" stroke-width="1" x1="358.3911" x2="358.3911" y1="201.8311" y2="174.8089" /><line stroke="rgb(0%,0%,0%)" stroke-width="1" x1="358.3911" x2="346.9067" y1="174.8089" y2="174.8089" /><line stroke="rgb(0%,0%,0%)" stroke-width="1" x1="346.9067" x2="346.9067" y1="174.8089" y2="147.7867" /><line stroke="rgb(0%,0%,0%)" stroke-width="1" x1="346.9067" x2="358.3911" y1="147.7867" y2="147.7867" /><line stroke="rgb(0%,0%,0%)" stroke-width="1" x1="358.3911" x2="358.3911" y1="147.7867" y2="120.7644" /><line stroke="rgb(0%,0%,0%)" stroke-width="1" x1="358.3911" x2="346.9067" y1="120.7644" y2="120.7644" /><line stroke="rgb(0%,0%,0%)" stroke-width="1" x1="346.9067" x2="346.9067" y1="120.7644" y2="93.7422" /><line stroke="rgb(0%,0%,0%)" stroke-width="1" x1="346.9067" x2="358.3911" y1="93.7422" y2="93.7422" /><line stroke="rgb(0%,0%,0%)" stroke-width="1" x1="358.3911" x2="358.3911" y1="93.7422" y2="66.72" /><line stroke="rgb(0%,0%,0%)" stroke-width="1" x1="358.3911" x2="358.3911" y1="66.72" y2="50.0" /><line stroke="rgb(0%,0%,0%)" stroke-width="1" x1="358.3911" x2="50.0" y1="363.12" y2="363.12" /><line stroke="rgb(0%,0%,0%)" stroke-width="1" x1="50.0" x2="50.0" y1="363.12" y2="336.9422" /><line stroke="rgb(0%,0%,0%)" stroke-width="1" x1="50.0" x2="61.4844" y1="336.9422" y2="336.9422" /><line stroke="rgb(0%,0%,0%)" stroke-width="1" x1="61.4844" x2="61.4844" y1="336.9422" y2="309.92" /><line stroke="rgb(0%,0%,0%)" stroke-width="1" x1="61.4844" x2="50.0" y1="309.92" y2="309.92" /><line stroke="rgb(0%,0%,0%)" stroke-width="1" x1="50.0" x2="50.0" y1="309.92" y2="282.8978" /><line stroke="rgb(0%,0%,0%)" stroke-width="1" x1="50.0" x2="61.4844" y1="282.8978" y2="282.8978" /><line stroke="rgb(0%,0%,0%)" stroke-width="1" x1="61.4844" x2="61.4844" y1="282.8978" y2="255.8756" /><line stroke="rgb(0%,0%,0%)" stroke-width="1" x1="61.4844" x2="50.0" y1="255.8756" y2="255.8756" /><line stroke="rgb(0%,0%,0%)" stroke-width="1" x1="50.0" x2="50.0" y1="255.8756" y2="228.8533" /><line stroke="rgb(0%,0%,0%)" stroke-width="1" x1="50.0" x2="61.4844" y1="228.8533" y2="228.8533" /><line stroke="rgb(0%,0%,0%)" stroke-width="1" x1="61.4844" x2="61.4844" y1="228.8533" y2="201.8311" /><line stroke="rgb(0%,0%,0%)" stroke-width="1" x1="61.4844" x2="50.0" y1="201.8311" y2="201.8311" /><line stroke="rgb(0%,0%,0%)" stroke-width="1" x1="50.0" x2="50.0" y1="201.8311" y2="174.8089" /><line stroke="rgb(0%,0%,0%)" stroke-width="1" x1="50.0" x2="61.4844" y1="174.8089" y2="174.8089" /><line stroke="rgb(0%,0%,0%)" stroke-width="1" x1="61.4844" x2="61.4844" y1="174.8089" y2="147.7867" /><line stroke="rgb(0%,0%,0%)" stroke-width="1" x1="61.4844" x2="50.0" y1="147.7867" y2="147.7867" /><line stroke="rgb(0%,0%,0%)" stroke-width="1" x1="50.0" x2="50.0" y1="147.7867" y2="120.7644" /><line stroke="rgb(0%,0%,0%)" stroke-width="1" x1="50.0" x2="61.4844" y1="120.7644" y2="120.7644" /><line stroke="rgb(0%,0%,0%)" stroke-width="1" x1="61.4844" x2="61.4844" y1="120.7644" y2="93.7422" /><line stroke="rgb(0%,0%,0%)" stroke-width="1" x1="61.4844" x2="50.0" y1="93.7422" y2="93.7422" /><line stroke="rgb(0%,0%,0%)" stroke-width="1" x1="50.0" x2="50.0" y1="93.7422" y2="66.72" /><line stroke="rgb(0%,0%,0%)" stroke-width="1" x1="50.0" x2="50.0" y1="66.72" y2="50.0" /><rect fill="none" height="93.7333" stroke="rgb(0%,0%,0%)" stroke-width="1" width="67.5556" x="170.7556" y="58.4444" /><line stroke="rgb(0%,0%,0%)" stroke-width="1" x1="408.3911" x2="508.0356" y1="93.5733" y2="50.0" /><line stroke="rgb(0%,0%,0%)" stroke-width="1" x1="508.0356" x2="607.68" y1="50.0" y2="93.5733" /><line stroke="rgb(0%,0%,0%)" stroke-width="1" x1="607.68" x2="607.68" y1="408.3822" y2="382.2044" /><line stroke="rgb(0%,0%,0%)" stroke-width="1" x1="607.68" x2="619.1644" y1="382.2044" y2="382.2044" /><line stroke="rgb(0%,0%,0%)" stroke-width="1" x1="619.1644" x2="619.1644" y1="382.2044" y2="355.1822" /><line stroke="rgb(0%,0%,0%)" stroke-width="1" x1="619.1644" x2="607.68" y1="355.1822" y2="355.1822" /><line stroke="rgb(0%,0%,0%)" stroke-width="1" x1="607.68" x2="607.68" y1="355.1822" y2="328.16" /><line stroke="rgb(0%,0%,0%)" stroke-width="1" x1="607.68" x2="619.1644" y1="328.16" y2="328.16" /><line stroke="rgb(0%,0%,0%)" stroke-width="1" x1="619.1644" x2="619.1644" y1="328.16" y2="301.1378" /><line stroke="rgb(0%,0%,0%)" stroke-width="1" x1="619.1644" x2="607.68" y1="301.1378" y2="301.1378" /><line stroke="rgb(0%,0%,0%)" stroke-width="1" x1="607.68" x2="607.68" y1="301.1378" y2="274.1156" /><line stroke="rgb(0%,0%,0%)" stroke-width="1" x1="607.68" x2="619.1644" y1="274.1156" y2="274.1156" /><line stroke="rgb(0%,0%,0%)" stroke-width="1" x1="619.1644" x2="619.1644" y1="274.1156" y2="247.0933" /><line stroke="rgb(0%,0%,0%)" stroke-width="1" x1="619.1644" x2="607.68" y1="247.0933" y2="247.0933" /><line stroke="rgb(0%,0%,0%)" stroke-width="1" x1="607.68" x2="607.68" y1="247.0933" y2="220.0711" /><line stroke="rgb(0%,0%,0%)" stroke-width="1" x1="607.68" x2="619.1644" y1="220.0711" y2="220.0711" /><line stroke="rgb(0%,0%,0%)" stroke-width="1" x1="619.1644" x2="619.1644" y1="220.0711" y2="193.0489" /><line stroke="rgb(0%,0%,0%)" stroke-width="1" x1="619.1644" x2="607.68" y1="193.0489" y2="193.0489" /><line stroke="rgb(0%,0%,0%)" stroke-width="1" x1="607.68" x2="607.68" y1="193.0489" y2="166.0267" /><line stroke="rgb(0%,0%,0%)" stroke-width="1" x1="607.68" x2="619.1644" y1="166.0267" y2="166.0267" /><line stroke="rgb(0%,0%,0%)" stroke-width="1" x1="619.1644" x2="619.1644" y1="166.0267" y2="139.0044" /><line stroke="rgb(0%,0%,0%)" stroke-width="1" x1="619.1644" x2="607.68" y1="139.0044" y2="139.0044" /><line stroke="rgb(0%,0%,0%)" stroke-width="1" x1="607.68" x2="607.68" y1="139.0044" y2="111.9822" /><line stroke="rgb(0%,0%,0%)" stroke-width="1" x1="607.68" x2="607.68" y1="111.9822" y2="93.5733" /><line stroke="rgb(0%,0%,0%)" stroke-width="1" x1="607.68" x2="408.3911" y1="408.3822" y2="408.3822" /><line stroke="rgb(0%,0%,0%)" stroke-width="1" x1="408.3911" x2="408.3911" y1="408.3822" y2="382.2044" /><line stroke="rgb(0%,0%,0%)" stroke-width="1" x1="408.3911" x2="396.9067" y1="382.2044" y2="382.2044" /><line stroke="rgb(0%,0%,0%)" stroke-width="1" x1="396.9067" x2="396.9067" y1="382.2044" y2="355.1822" /><line stroke="rgb(0%,0%,0%)" stroke-width="1" x1="396.9067" x2="408.3911" y1="355.1822" y2="355.1822" /><line stroke="rgb(0%,0%,0%)" stroke-width="1" x1="408.3911" x2="408.3911" y1="355.1822" y2="328.16" /><line stroke="rgb(0%,0%,0%)" stroke-width="1" x1="408.3911" x2="396.9067" y1="328.16" y2="328.16" /><line stroke="rgb(0%,0%,0%)" stroke-width="1" x1="396.9067" x2="396.9067" y1="328.16" y2="301.1378" /><line stroke="rgb(0%,0%,0%)" stroke-width="1" x1="396.9067" x2="408.3911" y1="301.1378" y2="301.1378" /><line stroke="rgb(0%,0%,0%)" stroke-width="1" x1="408.3911" x2="408.3911" y1="301.1378" y2="274.1156" /><line stroke="rgb(0%,0%,0%)" stroke-width="1" x1="408.3911" x2="396.9067" y1="274.1156" y2="274.1156" /><line stroke="rgb(0%,0%,0%)" stroke-width="1" x1="396.9067" x2="396.9067" y1="274.1156" y2="247.0933" /><line stroke="rgb(0%,0%,0%)" stroke-width="1" x1="396.9067" x2="408.3911" y1="247.0933" y2="247.0933" /><line stroke="rgb(0%,0%,0%)" stroke-width="1" x1="408.3911" x2="408.3911" y1="247.0933" y2="220.0711" /><line stroke="rgb(0%,0%,0%)" stroke-width="1" x1="408.3911" x2="396.9067" y1="220.0711" y2="220.0711" /><line stroke="rgb(0%,0%,0%)" stroke-width="1" x1="396.9067" x2="396.9067" y1="220.0711" y2="193.0489" /><line stroke="rgb(0%,0%,0%)" stroke-width="1" x1="396.9067" x2="408.3911" y1="193.0489" y2="193.0489" /><line stroke="rgb(0%,0%,0%)" stroke-width="1" x1="408.3911" x2="408.3911" y1="193.0489" y2="166.0267" /><line stroke="rgb(0%,0%,0%)" stroke-width="1" x1="408.3911" x2="396.9067" y1="166.0267" y2="166.0267" /><line stroke="rgb(0%,0%,0%)" stroke-width="1" x1="396.9067" x2="396.9067" y1="166.0267" y2="139.0044" /><line stroke="rgb(0%,0%,0%)" stroke-width="1" x1="396.9067" x2="408.3911" y1="139.0044" y2="139.0044" /><line stroke="rgb(0%,0%,0%)" stroke-width="1" x1="408.3911" x2="408.3911" y1="139.0044" y2="111.9822" /><line stroke="rgb(0%,0%,0%)" stroke-width="1" x1="408.3911" x2="408.3911" y1="111.9822" y2="93.5733" /><line stroke="rgb(0%,0%,0%)" stroke-width="1" x1="440.48" x2="440.48" y1="408.3822" y2="104.3822" /><line stroke="rgb(0%,0%,0%)" stroke-width="1" x1="440.48" x2="575.5911" y1="104.3822" y2="104.3822" /><line stroke="rgb(0%,0%,0%)" stroke-width="1" x1="575.5911" x2="575.5911" y1="104.3822" y2="408.3822" /><rect fill="none" height="304.0" stroke="rgb(30%,30%,30%)" stroke-width="1" width="1.6889" x="470.0356" y="104.3822" /><rect fill="none" height="304.0" stroke="rgb(30%,30%,30%)" stroke-width="1" width="1.6889" x="495.3689" y="104.3822" /><rect fill="none" height="304.0" stroke="rgb(30%,30%,30%)" stroke-width="1" width="1.6889" x="520.7022" y="104.3822" /><rect fill="none" height="304.0" stroke="rgb(30%,30%,30%)" stroke-width="1" width="1.6889" x="546.0356" y="104.3822" /><polygon fill="none" points="575.5911,149.9822 524.9244,154.2044 575.5911,158.4267 575.5911,149.9822" stroke="rgb(30%,30%,30%)" stroke-width="1" /><polygon fill="none" points="575.5911,256.3822 524.9244,260.6044 575.5911,264.8267 575.5911,256.3822" stroke="rgb(30%,30%,30%)" stroke-width="1" /><polygon fill="none" points="575.5911,362.7822 524.9244,367.0044 575.5911,371.2267 575.5911,362.7822" stroke="rgb(30%,30%,30%)" stroke-width="1" /><line stroke="rgb(0%,0%,0%)" stroke-width="1" x1="657.68" x2="966.0711" y1="50.0" y2="50.0" /><line stroke="rgb(0%,0%,0%)" stroke-width="1" x1="966.0711" x2="966.0711" y1="363.12" y2="336.9422" /><line stroke="rgb(0%,0%,0%)" stroke-width="1" x1="966.0711" x2="954.5867" y1="336.9422" y2="336.9422" /><line stroke="rgb(0%,0%,0%)" stroke-width="1" x1="954.5867" x2="954.5867" y1="336.9422" y2="309.92" /><line stroke="rgb(0%,0%,0%)" stroke-width="1" x1="954.5867" x2="966.0711" y1="309.92" y2="309.92" /><line stroke="rgb(0%,0%,0%)" stroke-width="1" x1="966.0711" x2="966.0711" y1="309.92" y2="282.8978" /><line stroke="rgb(0%,0%,0%)" stroke-width="1" x1="966.0711" x2="954.5867" y1="282.8978" y2="282.8978" /><line stroke="rgb(0%,0%,0%)" stroke-width="1" x1="954.5867" x2="954.5867" y1="282.8978" y2="255.8756" /><line stroke="rgb(0%,0%,0%)" stroke-width="1" x1="954.5867" x2="966.0711" y1="255.8756" y2="255.8756" /><line stroke="rgb(0%,0%,0%)" stroke-width="1" x1="966.0711" x2="966.0711" y1="255.8756" y2="228.8533" /><line stroke="rgb(0%,0%,0%)" stroke-width="1" x1="966.0711" x2="954.5867" y1="228.8533" y2="228.8533" /><line stroke="rgb(0%,0%,0%)" stroke-width="1" x1="954.5867" x2="954.5867" y1="228.8533" y2="201.8311" /><line stroke="rgb(0%,0%,0%)" stroke-width="1" x1="954.5867" x2="966.0711" y1="201.8311" y2="201.8311" /><line stroke="rgb(0%,0%,0%)" stroke-width="1" x1="966.0711" x2="966.0711" y1="201.8311" y2="174.8089" /><line stroke="rgb(0%,0%,0%)" stroke-width="1" x1="966.0711" x2="954.5867" y1="174.8089" y2="174.8089" /><line stroke="rgb(0%,0%,0%)" stroke-width="1" x1="954.5867" x2="954.5867" y1="174.8089" y2="147.7867" /><line stroke="rgb(0%,0%,0%)" stroke-width="1" x1="954.5867" x2="966.0711" y1="147.7867" y2="147.7867" /><line stroke="rgb(0%,0%,0%)" stroke-width="1" x1="966.0711" x2="966.0711" y1="147.7867" y2="120.7644" /><line stroke="rgb(0%,0%,0%)" stroke-width="1" x1="966.0711" x2="954.5867" y1="120.7644" y2="120.7644" /><line stroke="rgb(0%,0%,0%)" stroke-width="1" x1="954.5867" x2="954.5867" y1="120.7644" y2="93.7422" /><line stroke="rgb(0%,0%,0%)" stroke-width="1" x1="954.5867" x2="966.0711" y1="93.7422" y2="93.7422" /><line stroke="rgb(0%,0%,0%)" stroke-width="1" x1="966.0711" x2="966.0711" y1="93.7422" y2="66.72" /><line stroke="rgb(0%,0%,0%)" stroke-width="1" x1="966.0711" x2="966.0711" y1="66.72" y2="50.0" /><line stroke="rgb(0%,0%,0%)" stroke-width="1" x1="966.0711" x2="657.68" y1="363.12" y2="363.12" /><line stroke="rgb(0%,0%,0%)" stroke-width="1" x1="657.68" x2="657.68" y1="363.12" y2="336.9422" /><line stroke="rgb(0%,0%,0%)" stroke-width="1" x1="657.68" x2="669.1644" y1="336.9422" y2="336.9422" /><line stroke="rgb(0%,0%,0%)" stroke-width="1" x1="669.1644" x2="669.1644" y1="336.9422" y2="309.92" /><line stroke="rgb(0%,0%,0%)" stroke-width="1" x1="669.1644" x2="657.68" y1="309.92" y2="309.92" /><line stroke="rgb(0%,0%,0%)" stroke-width="1" x1="657.68" x2="657.68" y1="309.92" y2="282.8978" /><line stroke="rgb(0%,0%,0%)" stroke-width="1" x1="657.68" x2="669.1644" y1="282.8978" y2="282.8978" /><line stroke="rgb(0%,0%,0%)" stroke-width="1" x1="669.1644" x2="669.1644" y1="282.8978" y2="255.8756" /><line stroke="rgb(0%,0%,0%)" stroke-width="1" x1="669.1644" x2="657.68" y1="255.8756" y2="255.8756" /><line stroke="rgb(0%,0%,0%)" stroke-width="1" x1="657.68" x2="657.68" y1="255.8756" y2="228.8533" /><line stroke="rgb(0%,0%,0%)" stroke-width="1" x1="657.68" x2="669.1644" y1="228.8533" y2="228.8533" /><line stroke="rgb(0%,0%,0%)" stroke-width="1" x1="669.1644" x2="669.1644" y1="228.8533" y2="201.8311" /><line stroke="rgb(0%,0%,0%)" stroke-width="1" x1="669.1644" x2="657.68" y1="201.8311" y2="201.8311" /><line stroke="rgb(0%,0%,0%)" stroke-width="1" x1="657.68" x2="657.68" y1="201.8311" y2="174.8089" /><line stroke="rgb(0%,0%,0%)" stroke-width="1" x1="657.68" x2="669.1644" y1="174.8089" y2="174.8089" /><line stroke="rgb(0%,0%,0%)" stroke-width="1" x1="669.1644" x2="669.1644" y1="174.8089" y2="147.7867" /><line stroke="rgb(0%,0%,0%)" stroke-width="1" x1="669.1644" x2="657.68" y1="147.7867" y2="147.7867" /><line stroke="rgb(0%,0%,0%)" stroke-width="1" x1="657.68" x2="657.68" y1="147.7867" y2="120.7644" /><line stroke="rgb(0%,0%,0%)" stroke-width="1" x1="657.68" x2="669.1644" y1="120.7644" y2="120.7644" /><line stroke="rgb(0%,0%,0%)" stroke-width="1" x1="669.1644" x2="669.1644" y1="120.7644" y2="93.7422" /><line stroke="rgb(0%,0%,0%)" stroke-width="1" x1="669.1644" x2="657.68" y1="93.7422" y2="93.7422" /><line stroke="rgb(0%,0%,0%)" stroke-width="1" x1="657.68" x2="657.68" y1="93.7422" y2="66.72" /><line stroke="rgb(0%,0%,0%)" stroke-width="1" x1="657.68" x2="657.68" y1="66.72" y2="50.0" /><line stroke="rgb(0%,0%,0%)" stroke-width="1" x1="50.0" x2="149.6444" y1="501.9556" y2="458.3822" /><line stroke="rgb(0%,0%,0%)" stroke-width="1" x1="149.6444" x2="249.2889" y1="458.3822" y2="501.9556" /><line stroke="rgb(0%,0%,0%)" stroke-width="1" x1="249.2889" x2="249.2889" y1="816.7644" y2="790.5867" /><line stroke="rgb(0%,0%,0%)" stroke-width="1" x1="249.2889" x2="260.7733" y1="790.5867" y2="790.5867" /><line stroke="rgb(0%,0%,0%)" stroke-width="1" x1="260.7733" x2="260.7733" y1="790.5867" y2="763.5644" /><line stroke="rgb(0%,0%,0%)" stroke-width="1" x1="260.7733" x2="249.2889" y1="763.5644" y2="763.5644" /><line stroke="rgb(0%,0%,0%)" stroke-width="1" x1="249.2889" x2="249.2889" y1="763.5644" y2="736.5422" /><line stroke="rgb(0%,0%,0%)" stroke-width="1" x1="249.2889" x2="260.7733" y1="736.5422" y2="736.5422" /><line stroke="rgb(0%,0%,0%)" stroke-width="1" x1="260.7733" x2="260.7733" y1="736.5422" y2="709.52" /><line stroke="rgb(0%,0%,0%)" stroke-width="1" x1="260.7733" x2="249.2889" y1="709.52" y2="709.52" /><line stroke="rgb(0%,0%,0%)" stroke-width="1" x1="249.2889" x2="249.2889" y1="709.52" y2="682.4978" /><line stroke="rgb(0%,0%,0%)" stroke-width="1" x1="249.2889" x2="260.7733" y1="682.4978" y2="682.4978" /><line stroke="rgb(0%,0%,0%)" stroke-width="1" x1="260.7733" x2="260.7733" y1="682.4978" y2="655.4756" /><line stroke="rgb(0%,0%,0%)" stroke-width="1" x1="260.7733" x2="249.2889" y1="655.4756" y2="655.4756" /><line stroke="rgb(0%,0%,0%)" stroke-width="1" x1="249.2889" x2="249.2889" y1="655.4756" y2="628.4533" /><line stroke="rgb(0%,0%,0%)" stroke-width="1" x1="249.2889" x2="260.7733" y1="628.4533" y2="628.4533" /><line stroke="rgb(0%,0%,0%)" stroke-width="1" x1="260.7733" x2="260.7733" y1="628.4533" y2="601.4311" /><line stroke="rgb(0%,0%,0%)" stroke-width="1" x1="260.7733" x2="249.2889" y1="601.4311" y2="601.4311" /><line stroke="rgb(0%,0%,0%)" stroke-width="1" x1="249.2889" x2="249.2889" y1="601.4311" y2="574.4089" /><line stroke="rgb(0%,0%,0%)" stroke-width="1" x1="249.2889" x2="260.7733" y1="574.4089" y2="574.4089" /><line stroke="rgb(0%,0%,0%)" stroke-width="1" x1="260.7733" x2="260.7733" y1="574.4089" y2="547.3867" /><line stroke="rgb(0%,0%,0%)" stroke-width="1" x1="260.7733" x2="249.2889" y1="547.3867" y2="547.3867" /><line stroke="rgb(0%,0%,0%)" stroke-width="1" x1="249.2889" x2="249.2889" y1="547.3867" y2="520.3644" /><line stroke="rgb(0%,0%,0%)" stroke-width="1" x1="249.2889" x2="249.2889" y1="520.3644" y2="501.9556" /><line stroke="rgb(0%,0%,0%)" stroke-width="1" x1="249.2889" x2="50.0" y1="816.7644" y2="816.7644" /><line stroke="rgb(0%,0%,0%)" stroke-width="1" x1="50.0" x2="50.0" y1="816.7644" y2="790.5867" /><line stroke="rgb(0%,0%,0%)" stroke-width="1" x1="50.0" x2="38.5156" y1="790.5867" y2="790.5867" /><line stroke="rgb(0%,0%,0%)" stroke-width="1" x1="38.5156" x2="38.5156" y1="790.5867" y2="763.5644" /><line stroke="rgb(0%,0%,0%)" stroke-width="1" x1="38.5156" x2="50.0" y1="763.5644" y2="763.5644" /><line stroke="rgb(0%,0%,0%)" stroke-width="1" x1="50.0" x2="50.0" y1="763.5644" y2="736.5422" /><line stroke="rgb(0%,0%,0%)" stroke-width="1" x1="50.0" x2="38.5156" y1="736.5422" y2="736.5422" /><line stroke="rgb(0%,0%,0%)" stroke-width="1" x1="38.5156" x2="38.5156" y1="736.5422" y2="709.52" /><line stroke="rgb(0%,0%,0%)" stroke-width="1" x1="38.5156" x2="50.0" y1="709.52" y2="709.52" /><line stroke="rgb(0%,0%,0%)" stroke-width="1" x1="50.0" x2="50.0" y1="709.52" y2="682.4978" /><line stroke="rgb(0%,0%,0%)" stroke-width="1" x1="50.0" x2="38.5156" y1="682.4978" y2="682.4978" /><line stroke="rgb(0%,0%,0%)" stroke-width="1" x1="38.5156" x2="38.5156" y1="682.4978" y2="655.4756" /><line stroke="rgb(0%,0%,0%)" stroke-width="1" x1="38.5156" x2="50.0" y1="655.4756" y2="655.4756" /><line stroke="rgb(0%,0%,0%)" stroke-width="1" x1="50.0" x2="50.0" y1="655.4756" y2="628.4533" /><line stroke="rgb(0%,0%,0%)" stroke-width="1" x1="50.0" x2="38.5156" y1="628.4533" y2="628.4533" /><line stroke="rgb(0%,0%,0%)" stroke-width="1" x1="38.5156" x2="38.5156" y1="628.4533" y2="601.4311" /><line stroke="rgb(0%,0%,0%)" stroke-width="1" x1="38.5156" x2="50.0" y1="601.4311" y2="601.4311" /><line stroke="rgb(0%,0%,0%)" stroke-width="1" x1="50.0" x2="50.0" y1="601.4311" y2="574.4089" /><line stroke="rgb(0%,0%,0%)" stroke-width="1" x1="50.0" x2="38.5156" y1="574.4089" y2="574.4089" /><line stroke="rgb(0%,0%,0%)" stroke-width="1" x1="38.5156" x2="38.5156" y1="574.4089" y2="547.3867" /><line stroke="rgb(0%,0%,0%)" stroke-width="1" x1="38.5156" x2="50.0" y1="547.3867" y2="547.3867" /><line stroke="rgb(0%,0%,0%)" stroke-width="1" x1="50.0" x2="50.0" y1="547.3867" y2="520.3644" /><line stroke="rgb(0%,0%,0%)" stroke-width="1" x1="50.0" x2="50.0" y1="520.3644" y2="501.9556" /><line stroke="rgb(0%,0%,0%)" stroke-width="1" x1="299.2889" x2="624.5689" y1="458.3822" y2="458.3822" /><line stroke="rgb(0%,0%,0%)" stroke-width="1" x1="624.5689" x2="624.5689" y1="458.3822" y2="614.7733" /><line stroke="rgb(0%,0%,0%)" stroke-width="1" x1="624.5689" x2="299.2889" y1="614.7733" y2="614.7733" /><line stroke="rgb(0%,0%,0%)" stroke-width="1" x1="299.2889" x2="299.2889" y1="614.7733" y2="458.3822" /><line stroke="rgb(0%,0%,0%)" stroke-width="1" x1="674.5689" x2="999.8489" y1="458.3822" y2="458.3822" /><line stroke="rgb(0%,0%,0%)" stroke-width="1" x1="999.8489" x2="999.8489" y1="458.3822" y2="614.7733" /><line stroke="rgb(0%,0%,0%)" stroke-width="1" x1="999.8489" x2="674.5689" y1="614.7733" y2="614.7733" /><line stroke="rgb(0%,0%,0%)" stroke-width="1" x1="674.5689" x2="674.5689" y1="614.7733" y2="458.3822" /></svg>