<?xml version="1.0" encoding="utf-8" ?>
<svg baseProfile="tiny" height="760.0" version="1.2" width="760.0" xmlns="http://www.w3.org/2000/svg" xmlns:ev="http://www.w3.org/2001/xml-events" xmlns:xlink="http://www.w3.org/1999/xlink"><defs /><line stroke="rgb(0%,0%,0%)" stroke-width="1" x1="50.0" x2="149.6444" y1="93.5733" y2="50.0" /><line stroke="rgb(0%,0%,0%)" stroke-width="1" x1="149.6444" x2="249.2889" y1="50.0" y2="93.5733" /><line stroke="rgb(0%,0%,0%)" stroke-width="1" x1="249.2889" x2="249.2889" y1="408.3822" y2="382.2044" /><line stroke="rgb(0%,0%,0%)" stroke-width="1" x1="249.2889" x2="237.8044" y1="382.2044" y2="382.2044" /><line stroke="rgb(0%,0%,0%)" stroke-width="1" x1="237.8044" x2="237.8044" y1="382.2044" y2="355.1822" /><line stroke="rgb(0%,0%,0%)" stroke-width="1" x1="237.8044" x2="249.2889" y1="355.1822" y2="355.1822" /><line stroke="rgb(0%,0%,0%)" stroke-width="1" x1="249.2889" x2="249.2889" y1="355.1822" y2="328.16" /><line stroke="rgb(0%,0%,0%)" stroke-width="1" x1="249.2889" x2="237.8044" y1="328.16" y2="328.16" /><line stroke="rgb(0%,0%,0%)" stroke-width="1" x1="237.8044" x2="237.8044" y1="328.16" y2="301.1378" /><line stroke="rgb(0%,0%,0%)" stroke-width="1" x1="237.8044" x2="249.2889" y1="301.1378" y2="301.1378" /><line stroke="rgb(0%,0%,0%)" stroke-width="1" x1="249.2889" x2="249.2889" y1="301.1378" y2="274.1156" /><line stroke="rgb(0%,0%,0%)" stroke-width="1" x1="249.2889" x2="237.8044" y1="274.1156" y2="274.1156" /><line stroke="rgb(0%,0%,0%)" stroke-width="1" x1="237.8044" x2="237.8044" y1="274.1156" y2="247.0933" /><line stroke="rgb(0%,0%,0%)" stroke-width="1" x1="237.8044" x2="249.2889" y1="247.0933" y2="247.0933" /><line stroke="rgb(0%,0%,0%)" stroke-width="1" x1="249.2889" x2="249.2889" y1="247.0933" y2="220.0711" /><line stroke="rgb(0%,0%,0%)" stroke-width="1" x1="249.2889" x2="237.8044" y1="220.0711" y2="220.0711" /><line stroke="rgb(0%,0%,0%)" stroke-width="1" x1="237.8044" x2="237.8044" y1="220.0711" y2="193.0489" /><line stroke="rgb(0%,0%,0%)" stroke-width="1" x1="237.8044" x2="249.2889" y1="193.0489" y2="193.0489" /><line stroke="rgb(0%,0%,0%)" stroke-width="1" x1="249.2889" x2="249.2889" y1="193.0489" y2="166.0267" /><line stroke="rgb(0%,0%,0%)" stroke-width="1" x1="249.2889" x2="237.8044" y1="166.0267" y2="166.0267" /><line stroke="rgb(0%,0%,0%)" stroke-width="1" x1="237.8044" x2="237.8044" y1="166.0267" y2="139.0044" /><line stroke="rgb(0%,0%,0%)" stroke-width="1" x1="237.8044" x2="249.2889" y1="139.0044" y2="139.0044" /><line stroke="rgb(0%,0%,0%)" stroke-width="1" x1="249.2889" x2="249.2889" y1="139.0044" y2="111.9822" /><line stroke="rgb(0%,0%,0%)" stroke-width="1" x1="249.2889" x2="249.2889" y1="111.9822" y2="93.5733" /><line stroke="rgb(0%,0%,0%)" stroke-width="1" x1="249.2889" x2="50.0" y1="408.3822" y2="408.3822" /><line stroke="rgb(0%,0%,0%)" stroke-width="1" x1="50.0" x2="50.0" y1="408.3822" y2="382.2044" /><line stroke="rgb(0%,0%,0%)" stroke-width="1" x1="50.0" x2="38.6844" y1="382.2044" y2="382.2044" /><line stroke="rgb(0%,0%,0%)" stroke-width="1" x1="38.6844" x2="38.8533" y1="382.2044" y2="355.1822" /><line stroke="rgb(0%,0%,0%)" stroke-width="1" x1="38.8533" x2="50.0" y1="355.1822" y2="355.1822" /><line stroke="rgb(0%,0%,0%)" stroke-width="1" x1="50.0" x2="50.0" y1="355.1822" y2="328.16" /><line stroke="rgb(0%,0%,0%)" stroke-width="1" x1="50.0" x2="38.6844" y1="328.16" y2="328.16" /><line stroke="rgb(0%,0%,0%)" stroke-width="1" x1="38.6844" x2="38.8533" y1="328.16" y2="301.1378" /><line stroke="rgb(0%,0%,0%)" stroke-width="1" x1="38.8533" x2="50.0" y1="301.1378" y2="301.1378" /><line stroke="rgb(0%,0%,0%)" stroke-width="1" x1="50.0" x2="50.0" y1="301.1378" y2="274.1156" /><line stroke="rgb(0%,0%,0%)" stroke-width="1" x1="50.0" x2="38.6844" y1="274.1156" y2="274.1156" /><line stroke="rgb(0%,0%,0%)" stroke-width="1" x1="38.6844" x2="38.8533" y1="274.1156" y2="247.0933" /><line stroke="rgb(0%,0%,0%)" stroke-width="1" x1="38.8533" x2="50.0" y1="247.0933" y2="247.0933" /><line stroke="rgb(0%,0%,0%)" stroke-width="1" x1="50.0" x2="50.0" y1="247.0933" y2="220.0711" /><line stroke="rgb(0%,0%,0%)" stroke-width="1" x1="50.0" x2="38.6844" y1="220.0711" y2="220.0711" /><line stroke="rgb(0%,0%,0%)" stroke-width="1" x1="38.6844" x2="38.8533" y1="220.0711" y2="193.0489" /><line stroke="rgb(0%,0%,0%)" stroke-width="1" x1="38.8533" x2="50.0" y1="193.0489" y2="193.0489" /><line stroke="rgb(0%,0%,0%)" stroke-width="1" x1="50.0" x2="50.0" y1="193.0489" y2="166.0267" /><line stroke="rgb(0%,0%,0%)" stroke-width="1" x1="50.0" x2="38.6844" y1="166.0267" y2="166.0267" /><line stroke="rgb(0%,0%,0%)" stroke-width="1" x1="38.6844" x2="38.8533" y1="166.0267" y2="139.0044" /><line stroke="rgb(0%,0%,0%)" stroke-width="1" x1="38.8533" x2="50.0" y1="139.0044" y2="139.0044" /><line stroke="rgb(0%,0%,0%)" stroke-width="1" x1="50.0" x2="50.0" y1="139.0044" y2="111.9822" /><line stroke="rgb(0%,0%,0%)" stroke-width="1" x1="50.0" x2="50.0" y1="111.9822" y2="93.5733" /><rect fill="none" height="1.6889" stroke="rgb(30%,30%,30%)" stroke-width="1" width="199.2889" x="50.0" y="381.36" /><rect fill="none" height="1.6889" stroke="rgb(30%,30%,30%)" stroke-width="1" width="199.2889" x="50.0" y="354.3378" /><rect fill="none" height="1.6889" stroke="rgb(30%,30%,30%)" stroke-width="1" width="199.2889" x="50.0" y="327.3156" /><rect fill="none" height="1.6889" stroke="rgb(30%,30%,30%)" stroke-width="1" width="199.2889" x="50.0" y="300.2933" /><rect fill="none" height="1.6889" stroke="rgb(30%,30%,30%)" stroke-width="1" width="199.2889" x="50.0" y="273.2711" /><rect fill="none" height="1.6889" stroke="rgb(30%,30%,30%)" stroke-width="1" width="199.2889" x="50.0" y="246.2489" /><rect fill="none" height="1.6889" stroke="rgb(30%,30%,30%)" stroke-width="1" width="199.2889" x="50.0" y="219.2267" /><rect fill="none" height="1.6889" stroke="rgb(30%,30%,30%)" stroke-width="1" width="199.2889" x="50.0" y="192.2044" /><rect fill="none" height="1.6889" stroke="rgb(30%,30%,30%)" stroke-width="1" width="199.2889" x="50.0" y="165.1822" /><rect fill="none" height="1.6889" stroke="rgb(30%,30%,30%)" stroke-width="1" width="199.2889" x="50.0" y="138.16" /><rect fill="none" height="1.6889" stroke="rgb(30%,30%,30%)" stroke-width="1" width="199.2889" x="50.0" y="111.1378" /><polygon fill="none" points="71.6283,84.1156 227.6606,84.1156 231.5228,85.8044 67.7661,85.8044 71.6283,84.1156" stroke="rgb(30%,30%,30%)" stroke-width="1" /><polygon fill="none" points="133.4233,57.0933 165.8656,57.0933 169.7278,58.7822 129.5611,58.7822 133.4233,57.0933" stroke="rgb(30%,30%,30%)" stroke-width="1" /><line stroke="rgb(0%,0%,0%)" stroke-width="1" x1="299.2889" x2="607.68" y1="50.0" y2="50.0" /><line stroke="rgb(0%,0%,0%)" stroke-width="1" x1="607.68" x2="607.68" y1="356.3644" y2="330.1867" /><line stroke="rgb(0%,0%,0%)" stroke-width="1" x1="607.68" x2="596.1956" y1="330.1867" y2="330.1867" /><line stroke="rgb(0%,0%,0%)" stroke-width="1" x1="596.1956" x2="596.1956" y1="330.1867" y2="303.1644" /><line stroke="rgb(0%,0%,0%)" stroke-width="1" x1="596.1956" x2="607.68" y1="303.1644" y2="303.1644" /><line stroke="rgb(0%,0%,0%)" stroke-width="1" x1="607.68" x2="607.68" y1="303.1644" y2="276.1422" /><line stroke="rgb(0%,0%,0%)" stroke-width="1" x1="607.68" x2="596.1956" y1="276.1422" y2="276.1422" /><line stroke="rgb(0%,0%,0%)" stroke-width="1" x1="596.1956" x2="596.1956" y1="276.1422" y2="249.12" /><line stroke="rgb(0%,0%,0%)" stroke-width="1" x1="596.1956" x2="607.68" y1="249.12" y2="249.12" /><line stroke="rgb(0%,0%,0%)" stroke-width="1" x1="607.68" x2="607.68" y1="249.12" y2="222.0978" /><line stroke="rgb(0%,0%,0%)" stroke-width="1" x1="607.68" x2="596.1956" y1="222.0978" y2="222.0978" /><line stroke="rgb(0%,0%,0%)" stroke-width="1" x1="596.1956" x2="596.1956" y1="222.0978" y2="195.0756" /><line stroke="rgb(0%,0%,0%)" stroke-width="1" x1="596.1956" x2="607.68" y1="195.0756" y2="195.0756" /><line stroke="rgb(0%,0%,0%)" stroke-width="1" x1="607.68" x2="607.68" y1="195.0756" y2="168.0533" /><line stroke="rgb(0%,0%,0%)" stroke-width="1" x1="607.68" x2="596.1956" y1="168.0533" y2="168.0533" /><line stroke="rgb(0%,0%,0%)" stroke-width="1" x1="596.1956" x2="596.1956" y1="168.0533" y2="141.0311" /><line stroke="rgb(0%,0%,0%)" stroke-width="1" x1="596.1956" x2="607.68" y1="141.0311" y2="141.0311" /><line stroke="rgb(0%,0%,0%)" stroke-width="1" x1="607.68" x2="607.68" y1="141.0311" y2="114.0089" /><line stroke="rgb(0%,0%,0%)" stroke-width="1" x1="607.68" x2="596.1956" y1="114.0089" y2="114.0089" /><line stroke="rgb(0%,0%,0%)" stroke-width="1" x1="596.1956" x2="596.1956" y1="114.0089" y2="86.9867" /><line stroke="rgb(0%,0%,0%)" stroke-width="1" x1="596.1956" x2="607.68" y1="86.9867" y2="86.9867" /><line stroke="rgb(0%,0%,0%)" stroke-width="1" x1="607.68" x2="607.68" y1="86.9867" y2="59.9644" /><line stroke="rgb(0%,0%,0%)" stroke-width="1" x1="607.68" x2="607.68" y1="59.9644" y2="50.0" /><line stroke="rgb(0%,0%,0%)" stroke-width="1" x1="607.68" x2="299.2889" y1="356.3644" y2="356.3644" /><line stroke="rgb(0%,0%,0%)" stroke-width="1" x1="299.2889" x2="299.2889" y1="356.3644" y2="330.1867" /><line stroke="rgb(0%,0%,0%)" stroke-width="1" x1="299.2889" x2="287.9733" y1="330.1867" y2="330.1867" /><line stroke="rgb(0%,0%,0%)" stroke-width="1" x1="287.9733" x2="288.1422" y1="330.1867" y2="303.1644" /><line stroke="rgb(0%,0%,0%)" stroke-width="1" x1="288.1422" x2="299.2889" y1="303.1644" y2="303.1644" /><line stroke="rgb(0%,0%,0%)" stroke-width="1" x1="299.2889" x2="299.2889" y1="303.1644" y2="276.1422" /><line stroke="rgb(0%,0%,0%)" stroke-width="1" x1="299.2889" x2="287.9733" y1="276.1422" y2="276.1422" /><line stroke="rgb(0%,0%,0%)" stroke-width="1" x1="287.9733" x2="288.1422" y1="276.1422" y2="249.12" /><line stroke="rgb(0%,0%,0%)" stroke-width="1" x1="288.1422" x2="299.2889" y1="249.12" y2="249.12" /><line stroke="rgb(0%,0%,0%)" stroke-width="1" x1="299.2889" x2="299.2889" y1="249.12" y2="222.0978" /><line stroke="rgb(0%,0%,0%)" stroke-width="1" x1="299.2889" x2="287.9733" y1="222.0978" y2="222.0978" /><line stroke="rgb(0%,0%,0%)" stroke-width="1" x1="287.9733" x2="288.1422" y1="222.0978" y2="195.0756" /><line stroke="rgb(0%,0%,0%)" stroke-width="1" x1="288.1422" x2="299.2889" y1="195.0756" y2="195.0756" /><line stroke="rgb(0%,0%,0%)" stroke-width="1" x1="299.2889" x2="299.2889" y1="195.0756" y2="168.0533" /><line stroke="rgb(0%,0%,0%)" stroke-width="1" x1="299.2889" x2="287.9733" y1="168.0533" y2="168.0533" /><line stroke="rgb(0%,0%,0%)" stroke-width="1" x1="287.9733" x2="288.1422" y1="168.0533" y2="141.0311" /><line stroke="rgb(0%,0%,0%)" stroke-width="1" x1="288.1422" x2="299.2889" y1="141.0311" y2="141.0311" /><line stroke="rgb(0%,0%,0%)" stroke-width="1" x1="299.2889" x2="299.2889" y1="141.0311" y2="114.0089" /><line stroke="rgb(0%,0%,0%)" stroke-width="1" x1="299.2889" x2="287.9733" y1="114.0089" y2="114.0089" /><line stroke="rgb(0%,0%,0%)" stroke-width="1" x1="287.9733" x2="288.1422" y1="114.0089" y2="86.9867" /><line stroke="rgb(0%,0%,0%)" stroke-width="1" x1="288.1422" x2="299.2889" y1="86.9867" y2="86.9867" /><line stroke="rgb(0%,0%,0%)" stroke-width="1" x1="299.2889" x2="299.2889" y1="86.9867" y2="59.9644" /><line stroke="rgb(0%,0%,0%)" stroke-width="1" x1="299.2889" x2="299.2889" y1="59.9644" y2="50.0" /><rect fill="none" height="93.7333" stroke="rgb(0%,0%,0%)" stroke-width="1" width="67.5556" x="420.0444" y="58.4444" /><rect fill="none" height="1.6889" stroke="rgb(30%,30%,30%)" stroke-width="1" width="308.3911" x="299.2889" y="329.3422" /><rect fill="none" height="1.6889" stroke="rgb(30%,30%,30%)" stroke-width="1" width="308.3911" x="299.2889" y="302.32" /><rect fill="none" height="1.6889" stroke="rgb(30%,30%,30%)" stroke-width="1" width="308.3911" x="299.2889" y="275.2978" /><rect fill="none" height="1.6889" stroke="rgb(30%,30%,30%)" stroke-width="1" width="308.3911" x="299.2889" y="248.2756" /><rect fill="none" height="1.6889" stroke="rgb(30%,30%,30%)" stroke-width="1" width="308.3911" x="299.2889" y="221.2533" /><rect fill="none" height="1.6889" stroke="rgb(30%,30%,30%)" stroke-width="1" width="308.3911" x="299.2889" y="194.2311" /><rect fill="none" height="1.6889" stroke="rgb(30%,30%,30%)" stroke-width="1" width="308.3911" x="299.2889" y="167.2089" /><rect fill="none" height="1.6889" stroke="rgb(30%,30%,30%)" stroke-width="1" width="120.7556" x="299.2889" y="140.1867" /><rect fill="none" height="1.6889" stroke="rgb(30%,30%,30%)" stroke-width="1" width="120.08" x="487.6" y="140.1867" /><rect fill="none" height="1.6889" stroke="rgb(30%,30%,30%)" stroke-width="1" width="120.7556" x="299.2889" y="113.1644" /><rect fill="none" height="1.6889" stroke="rgb(30%,30%,30%)" stroke-width="1" width="120.08" x="487.6" y="113.1644" /><rect fill="none" height="1.6889" stroke="rgb(30%,30%,30%)" stroke-width="1" width="120.7556" x="299.2889" y="86.1422" /><rect fill="none" height="1.6889" stroke="rgb(30%,30%,30%)" stroke-width="1" width="120.08" x="487.6" y="86.1422" /><rect fill="none" height="1.6889" stroke="rgb(30%,30%,30%)" stroke-width="1" width="120.7556" x="299.2889" y="59.12" /><rect fill="none" height="1.6889" stroke="rgb(30%,30%,30%)" stroke-width="1" width="120.08" x="487.6" y="59.12" /><line stroke="rgb(0%,0%,0%)" stroke-width="1" x1="657.68" x2="757.3244" y1="93.5733" y2="50.0" /><line stroke="rgb(0%,0%,0%)" stroke-width="1" x1="757.3244" x2="856.9689" y1="50.0" y2="93.5733" /><line stroke="rgb(0%,0%,0%)" stroke-width="1" x1="856.9689" x2="856.9689" y1="408.3822" y2="382.2044" /><line stroke="rgb(0%,0%,0%)" stroke-width="1" x1="856.9689" x2="845.4844" y1="382.2044" y2="382.2044" /><line stroke="rgb(0%,0%,0%)" stroke-width="1" x1="845.4844" x2="845.4844" y1="382.2044" y2="355.1822" /><line stroke="rgb(0%,0%,0%)" stroke-width="1" x1="845.4844" x2="856.9689" y1="355.1822" y2="355.1822" /><line stroke="rgb(0%,0%,0%)" stroke-width="1" x1="856.9689" x2="856.9689" y1="355.1822" y2="328.16" /><line stroke="rgb(0%,0%,0%)" stroke-width="1" x1="856.9689" x2="845.4844" y1="328.16" y2="328.16" /><line stroke="rgb(0%,0%,0%)" stroke-width="1" x1="845.4844" x2="845.4844" y1="328.16" y2="301.1378" /><line stroke="rgb(0%,0%,0%)" stroke-width="1" x1="845.4844" x2="856.9689" y1="301.1378" y2="301.1378" /><line stroke="rgb(0%,0%,0%)" stroke-width="1" x1="856.9689" x2="856.9689" y1="301.1378" y2="274.1156" /><line stroke="rgb(0%,0%,0%)" stroke-width="1" x1="856.9689" x2="845.4844" y1="274.1156" y2="274.1156" /><line stroke="rgb(0%,0%,0%)" stroke-width="1" x1="845.4844" x2="845.4844" y1="274.1156" y2="247.0933" /><line stroke="rgb(0%,0%,0%)" stroke-width="1" x1="845.4844" x2="856.9689" y1="247.0933" y2="247.0933" /><line stroke="rgb(0%,0%,0%)" stroke-width="1" x1="856.9689" x2="856.9689" y1="247.0933" y2="220.0711" /><line stroke="rgb(0%,0%,0%)" stroke-width="1" x1="856.9689" x2="845.4844" y1="220.0711" y2="220.0711" /><line stroke="rgb(0%,0%,0%)" stroke-width="1" x1="845.4844" x2="845.4844" y1="220.0711" y2="193.0489" /><line stroke="rgb(0%,0%,0%)" stroke-width="1" x1="845.4844" x2="856.9689" y1="193.0489" y2="193.0489" /><line stroke="rgb(0%,0%,0%)" stroke-width="1" x1="856.9689" x2="856.9689" y1="193.0489" y2="166.0267" /><line stroke="rgb(0%,0%,0%)" stroke-width="1" x1="856.9689" x2="845.4844" y1="166.0267" y2="166.0267" /><line stroke="rgb(0%,0%,0%)" stroke-width="1" x1="845.4844" x2="845.4844" y1="166.0267" y2="139.0044" /><line stroke="rgb(0%,0%,0%)" stroke-width="1" x1="845.4844" x2="856.9689" y1="139.0044" y2="139.0044" /><line stroke="rgb(0%,0%,0%)" stroke-width="1" x1="856.9689" x2="856.9689" y1="139.0044" y2="111.9822" /><line stroke="rgb(0%,0%,0%)" stroke-width="1" x1="856.9689" x2="856.9689" y1="111.9822" y2="93.5733" /><line stroke="rgb(0%,0%,0%)" stroke-width="1" x1="856.9689" x2="657.68" y1="408.3822" y2="408.3822" /><line stroke="rgb(0%,0%,0%)" stroke-width="1" x1="657.68" x2="657.68" y1="408.3822" y2="382.2044" /><line stroke="rgb(0%,0%,0%)" stroke-width="1" x1="657.68" x2="646.3644" y1="382.2044" y2="382.2044" /><line stroke="rgb(0%,0%,0%)" stroke-width="1" x1="646.3644" x2="646.5333" y1="382.2044" y2="355.1822" /><line stroke="rgb(0%,0%,0%)" stroke-width="1" x1="646.5333" x2="657.68" y1="355.1822" y2="355.1822" /><line stroke="rgb(0%,0%,0%)" stroke-width="1" x1="657.68" x2="657.68" y1="355.1822" y2="328.16" /><line stroke="rgb(0%,0%,0%)" stroke-width="1" x1="657.68" x2="646.3644" y1="328.16" y2="328.16" /><line stroke="rgb(0%,0%,0%)" stroke-width="1" x1="646.3644" x2="646.5333" y1="328.16" y2="301.1378" /><line stroke="rgb(0%,0%,0%)" stroke-width="1" x1="646.5333" x2="657.68" y1="301.1378" y2="301.1378" /><line stroke="rgb(0%,0%,0%)" stroke-width="1" x1="657.68" x2="657.68" y1="301.1378" y2="274.1156" /><line stroke="rgb(0%,0%,0%)" stroke-width="1" x1="657.68" x2="646.3644" y1="274.1156" y2="274.1156" /><line stroke="rgb(0%,0%,0%)" stroke-width="1" x1="646.3644" x2="646.5333" y1="274.1156" y2="247.0933" /><line stroke="rgb(0%,0%,0%)" stroke-width="1" x1="646.5333" x2="657.68" y1="247.0933" y2="247.0933" /><line stroke="rgb(0%,0%,0%)" stroke-width="1" x1="657.68" x2="657.68" y1="247.0933" y2="220.0711" /><line stroke="rgb(0%,0%,0%)" stroke-width="1" x1="657.68" x2="646.3644" y1="220.0711" y2="220.0711" /><line stroke="rgb(0%,0%,0%)" stroke-width="1" x1="646.3644" x2="646.5333" y1="220.0711" y2="193.0489" /><line stroke="rgb(0%,0%,0%)" stroke-width="1" x1="646.5333" x2="657.68" y1="193.0489" y2="193.0489" /><line stroke="rgb(0%,0%,0%)" stroke-width="1" x1="657.68" x2="657.68" y1="193.0489" y2="166.0267" /><line stroke="rgb(0%,0%,0%)" stroke-width="1" x1="657.68" x2="646.3644" y1="166.0267" y2="166.0267" /><line stroke="rgb(0%,0%,0%)" stroke-width="1" x1="646.3644" x2="646.5333" y1="166.0267" y2="139.0044" /><line stroke="rgb(0%,0%,0%)" stroke-width="1" x1="646.5333" x2="657.68" y1="139.0044" y2="139.0044" /><line stroke="rgb(0%,0%,0%)" stroke-width="1" x1="657.68" x2="657.68" y1="139.0044" y2="111.9822" /><line stroke="rgb(0%,0%,0%)" stroke-width="1" x1="657.68" x2="657.68" y1="111.9822" y2="93.5733" /><rect fill="none" height="1.6889" stroke="rgb(30%,30%,30%)" stroke-width="1" width="32.0889" x="657.68" y="381.36" /><rect fill="none" height="1.6889" stroke="rgb(30%,30%,30%)" stroke-width="1" width="32.0889" x="824.88" y="381.36" /><rect fill="none" height="1.6889" stroke="rgb(30%,30%,30%)" stroke-width="1" width="32.0889" x="657.68" y="354.3378" /><rect fill="none" height="1.6889" stroke="rgb(30%,30%,30%)" stroke-width="1" width="32.0889" x="824.88" y="354.3378" /><rect fill="none" height="1.6889" stroke="rgb(30%,30%,30%)" stroke-width="1" width="32.0889" x="657.68" y="327.3156" /><rect fill="none" height="1.6889" stroke="rgb(30%,30%,30%)" stroke-width="1" width="32.0889" x="824.88" y="327.3156" /><rect fill="none" height="1.6889" stroke="rgb(30%,30%,30%)" stroke-width="1" width="32.0889" x="657.68" y="300.2933" /><rect fill="none" height="1.6889" stroke="rgb(30%,30%,30%)" stroke-width="1" width="32.0889" x="824.88" y="300.2933" /><rect fill="none" height="1.6889" stroke="rgb(30%,30%,30%)" stroke-width="1" width="32.0889" x="657.68" y="273.2711" /><rect fill="none" height="1.6889" stroke="rgb(30%,30%,30%)" stroke-width="1" width="32.0889" x="824.88" y="273.2711" /><rect fill="none" height="1.6889" stroke="rgb(30%,30%,30%)" stroke-width="1" width="32.0889" x="657.68" y="246.2489" /><rect fill="none" height="1.6889" stroke="rgb(30%,30%,30%)" stroke-width="1" width="32.0889" x="824.88" y="246.2489" /><rect fill="none" height="1.6889" stroke="rgb(30%,30%,30%)" stroke-width="1" width="32.0889" x="657.68" y="219.2267" /><rect fill="none" height="1.6889" stroke="rgb(30%,30%,30%)" stroke-width="1" width="32.0889" x="824.88" y="219.2267" /><rect fill="none" height="1.6889" stroke="rgb(30%,30%,30%)" stroke-width="1" width="32.0889" x="657.68" y="192.2044" /><rect fill="none" height="1.6889" stroke="rgb(30%,30%,30%)" stroke-width="1" width="32.0889" x="824.88" y="192.2044" /><rect fill="none" height="1.6889" stroke="rgb(30%,30%,30%)" stroke-width="1" width="32.0889" x="657.68" y="165.1822" /><rect fill="none" height="1.6889" stroke="rgb(30%,30%,30%)" stroke-width="1" width="32.0889" x="824.88" y="165.1822" /><rect fill="none" height="1.6889" stroke="rgb(30%,30%,30%)" stroke-width="1" width="32.0889" x="657.68" y="138.16" /><rect fill="none" height="1.6889" stroke="rgb(30%,30%,30%)" stroke-width="1" width="32.0889" x="824.88" y="138.16" /><rect fill="none" height="1.6889" stroke="rgb(30%,30%,30%)" stroke-width="1" width="32.0889" x="657.68" y="111.1378" /><rect fill="none" height="1.6889" stroke="rgb(30%,30%,30%)" stroke-width="1" width="32.0889" x="824.88" y="111.1378" /><polygon fill="none" points="679.3083,84.1156 835.3406,84.1156 839.2028,85.8044 675.4461,85.8044 679.3083,84.1156" stroke="rgb(30%,30%,30%)" stroke-width="1" /><polygon fill="none" points="741.1033,57.0933 773.5456,57.0933 777.4078,58.7822 737.2411,58.7822 741.1033,57.0933" stroke="rgb(30%,30%,30%)" stroke-width="1" /><rect fill="none" height="304.0" stroke="rgb(30%,30%,30%)" stroke-width="1" width="1.6889" x="719.3244" y="104.3822" /><rect fill="none" height="304.0" stroke="rgb(30%,30%,30%)" stroke-width="1" width="1.6889" x="744.6578" y="104.3822" /><rect fill="none" height="304.0" stroke="rgb(30%,30%,30%)" stroke-width="1" width="1.6889" x="769.9911" y="104.3822" /><rect fill="none" height="304.0" stroke="rgb(30%,30%,30%)" stroke-width="1" width="1.6889" x="795.3244" y="104.3822" /><polygon fill="none" points="824.88,149.9822 774.2133,154.2044 824.88,158.4267" stroke="rgb(30%,30%,30%)" stroke-width="1" /><polygon fill="none" points="824.88,256.3822 774.2133,260.6044 824.88,264.8267" stroke="rgb(30%,30%,30%)" stroke-width="1" /><polygon fill="none" points="824.88,362.7822 774.2133,367.0044 824.88,371.2267" stroke="rgb(30%,30%,30%)" stroke-width="1" /><polygon fill="none" points="688.9244,408.3822 690.6133,408.3822 690.6133,104.3822 688.9244,104.3822 688.9244,408.3822" stroke="rgb(30%,30%,30%)" stroke-width="1" /><polygon fill="none" points="689.7689,103.5378 824.88,103.5378 824.88,105.2267 689.7689,105.2267 689.7689,103.5378" stroke="rgb(30%,30%,30%)" stroke-width="1" /><polygon fill="none" points="824.0356,104.3822 825.7244,104.3822 825.7244,408.3822 824.0356,408.3822 824.0356,104.3822" stroke="rgb(30%,30%,30%)" stroke-width="1" /><line stroke="rgb(0%,0%,0%)" stroke-width="1" x1="50.0" x2="358.3911" y1="458.3822" y2="458.3822" /><line stroke="rgb(0%,0%,0%)" stroke-width="1" x1="358.3911" x2="358.3911" y1="764.7467" y2="738.5689" /><line stroke="rgb(0%,0%,0%)" stroke-width="1" x1="358.3911" x2="346.9067" y1="738.5689" y2="738.5689" /><line stroke="rgb(0%,0%,0%)" stroke-width="1" x1="346.9067" x2="346.9067" y1="738.5689" y2="711.5467" /><line stroke="rgb(0%,0%,0%)" stroke-width="1" x1="346.9067" x2="358.3911" y1="711.5467" y2="711.5467" /><line stroke="rgb(0%,0%,0%)" stroke-width="1" x1="358.3911" x2="358.3911" y1="711.5467" y2="684.5244" /><line stroke="rgb(0%,0%,0%)" stroke-width="1" x1="358.3911" x2="346.9067" y1="684.5244" y2="684.5244" /><line stroke="rgb(0%,0%,0%)" stroke-width="1" x1="346.9067" x2="346.9067" y1="684.5244" y2="657.5022" /><line stroke="rgb(0%,0%,0%)" stroke-width="1" x1="346.9067" x2="358.3911" y1="657.5022" y2="657.5022" /><line stroke="rgb(0%,0%,0%)" stroke-width="1" x1="358.3911" x2="358.3911" y1="657.5022" y2="630.48" /><line stroke="rgb(0%,0%,0%)" stroke-width="1" x1="358.3911" x2="346.9067" y1="630.48" y2="630.48" /><line stroke="rgb(0%,0%,0%)" stroke-width="1" x1="346.9067" x2="346.9067" y1="630.48" y2="603.4578" /><line stroke="rgb(0%,0%,0%)" stroke-width="1" x1="346.9067" x2="358.3911" y1="603.4578" y2="603.4578" /><line stroke="rgb(0%,0%,0%)" stroke-width="1" x1="358.3911" x2="358.3911" y1="603.4578" y2="576.4356" /><line stroke="rgb(0%,0%,0%)" stroke-width="1" x1="358.3911" x2="346.9067" y1="576.4356" y2="576.4356" /><line stroke="rgb(0%,0%,0%)" stroke-width="1" x1="346.9067" x2="346.9067" y1="576.4356" y2="549.4133" /><line stroke="rgb(0%,0%,0%)" stroke-width="1" x1="346.9067" x2="358.3911" y1="549.4133" y2="549.4133" /><line stroke="rgb(0%,0%,0%)" stroke-width="1" x1="358.3911" x2="358.3911" y1="549.4133" y2="522.3911" /><line stroke="rgb(0%,0%,0%)" stroke-width="1" x1="358.3911" x2="346.9067" y1="522.3911" y2="522.3911" /><line stroke="rgb(0%,0%,0%)" stroke-width="1" x1="346.9067" x2="346.9067" y1="522.3911" y2="495.3689" /><line stroke="rgb(0%,0%,0%)" stroke-width="1" x1="346.9067" x2="358.3911" y1="495.3689" y2="495.3689" /><line stroke="rgb(0%,0%,0%)" stroke-width="1" x1="358.3911" x2="358.3911" y1="495.3689" y2="468.3467" /><line stroke="rgb(0%,0%,0%)" stroke-width="1" x1="358.3911" x2="358.3911" y1="468.3467" y2="458.3822" /><line stroke="rgb(0%,0%,0%)" stroke-width="1" x1="358.3911" x2="50.0" y1="764.7467" y2="764.7467" /><line stroke="rgb(0%,0%,0%)" stroke-width="1" x1="50.0" x2="50.0" y1="764.7467" y2="738.5689" /><line stroke="rgb(0%,0%,0%)" stroke-width="1" x1="50.0" x2="38.6844" y1="738.5689" y2="738.5689" /><line stroke="rgb(0%,0%,0%)" stroke-width="1" x1="38.6844" x2="38.8533" y1="738.5689" y2="711.5467" /><line stroke="rgb(0%,0%,0%)" stroke-width="1" x1="38.8533" x2="50.0" y1="711.5467" y2="711.5467" /><line stroke="rgb(0%,0%,0%)" stroke-width="1" x1="50.0" x2="50.0" y1="711.5467" y2="684.5244" /><line stroke="rgb(0%,0%,0%)" stroke-width="1" x1="50.0" x2="38.6844" y1="684.5244" y2="684.5244" /><line stroke="rgb(0%,0%,0%)" stroke-width="1" x1="38.6844" x2="38.8533" y1="684.5244" y2="657.5022" /><line stroke="rgb(0%,0%,0%)" stroke-width="1" x1="38.8533" x2="50.0" y1="657.5022" y2="657.5022" /><line stroke="rgb(0%,0%,0%)" stroke-width="1" x1="50.0" x2="50.0" y1="657.5022" y2="630.48" /><line stroke="rgb(0%,0%,0%)" stroke-width="1" x1="50.0" x2="38.6844" y1="630.48" y2="630.48" /><line stroke="rgb(0%,0%,0%)" stroke-width="1" x1="38.6844" x2="38.8533" y1="630.48" y2="603.4578" /><line stroke="rgb(0%,0%,0%)" stroke-width="1" x1="38.8533" x2="50.0" y1="603.4578" y2="603.4578" /><line stroke="rgb(0%,0%,0%)" stroke-width="1" x1="50.0" x2="50.0" y1="603.4578" y2="576.4356" /><line stroke="rgb(0%,0%,0%)" stroke-width="1" x1="50.0" x2="38.6844" y1="576.4356" y2="576.4356" /><line stroke="rgb(0%,0%,0%)" stroke-width="1" x1="38.6844" x2="38.8533" y1="576.4356" y2="549.4133" /><line stroke="rgb(0%,0%,0%)" stroke-width="1" x1="38.8533" x2="50.0" y1="549.4133" y2="549.4133" /><line stroke="rgb(0%,0%,0%)" stroke-width="1" x1="50.0" x2="50.0" y1="549.4133" y2="522.3911" /><line stroke="rgb(0%,0%,0%)" stroke-width="1" x1="50.0" x2="38.6844" y1="522.3911" y2="522.3911" /><line stroke="rgb(0%,0%,0%)" stroke-width="1" x1="38.6844" x2="38.8533" y1="522.3911" y2="495.3689" /><line stroke="rgb(0%,0%,0%)" stroke-width="1" x1="38.8533" x2="50.0" y1="495.3689" y2="495.3689" /><line stroke="rgb(0%,0%,0%)" stroke-width="1" x1="50.0" x2="50.0" y1="495.3689" y2="468.3467" /><line stroke="rgb(0%,0%,0%)" stroke-width="1" x1="50.0" x2="50.0" y1="468.3467" y2="458.3822" /><rect fill="none" height="1.6889" stroke="rgb(30%,30%,30%)" stroke-width="1" width="308.3911" x="50.0" y="737.7244" /><rect fill="none" height="1.6889" stroke="rgb(30%,30%,30%)" stroke-width="1" width="308.3911" x="50.0" y="710.7022" /><rect fill="none" height="1.6889" stroke="rgb(30%,30%,30%)" stroke-width="1" width="308.3911" x="50.0" y="683.68" /><rect fill="none" height="1.6889" stroke="rgb(30%,30%,30%)" stroke-width="1" width="308.3911" x="50.0" y="656.6578" /><rect fill="none" height="1.6889" stroke="rgb(30%,30%,30%)" stroke-width="1" width="308.3911" x="50.0" y="629.6356" /><rect fill="none" height="1.6889" stroke="rgb(30%,30%,30%)" stroke-width="1" width="308.3911" x="50.0" y="602.6133" /><rect fill="none" height="1.6889" stroke="rgb(30%,30%,30%)" stroke-width="1" width="308.3911" x="50.0" y="575.5911" /><rect fill="none" height="1.6889" stroke="rgb(30%,30%,30%)" stroke-width="1" width="308.3911" x="50.0" y="548.5689" /><rect fill="none" height="1.6889" stroke="rgb(30%,30%,30%)" stroke-width="1" width="308.3911" x="50.0" y="521.5467" /><rect fill="none" height="1.6889" stroke="rgb(30%,30%,30%)" stroke-width="1" width="308.3911" x="50.0" y="494.5244" /><rect fill="none" height="1.6889" stroke="rgb(30%,30%,30%)" stroke-width="1" width="308.3911" x="50.0" y="467.5022" /><rect fill="none" height="125.6439" stroke="rgb(0%,0%,0%)" stroke-width="1" width="325.28" x="408.3911" y="458.3822" /><rect fill="none" height="125.6439" stroke="rgb(0%,0%,0%)" stroke-width="1" width="325.28" x="783.6711" y="458.3822" /></svg>