<?xml version="1.0" encoding="utf-8" ?>
<svg baseProfile="tiny" height="1140.0" version="1.2" width="1140.0" xmlns="http://www.w3.org/2000/svg" xmlns:ev="http://www.w3.org/2001/xml-events" xmlns:xlink="http://www.w3.org/1999/xlink"><defs /><line stroke="rgb(0%,0%,0%)" stroke-width="1" x1="50.0" x2="358.3911" y1="50.0" y2="50.0" /><line stroke="rgb(0%,0%,0%)" stroke-width="1" x1="358.3911" x2="358.3911" y1="363.12" y2="336.9422" /><line stroke="rgb(0%,0%,0%)" stroke-width="1" x1="358.3911" x2="346.9067" y1="336.9422" y2="336.9422" /><line stroke="rgb(0%,0%,0%)" stroke-width="1" x1="346.9067" x2="346.9067" y1="336.9422" y2="309.92" /><line stroke="rgb(0%,0%,0%)" stroke-width="1" x1="346.9067" x2="358.3911" y1="309.92" y2="309.92" /><line stroke="rgb(0%,0%,0%)" stroke-width="1" x1="358.3911" x2="358.3911" y1="309.92" y2="282.8978" /><line stroke="rgb(0%,0%,0%)" stroke-width="1" x1="358.3911" x2="346.9067" y1="282.8978" y2="282.8978" /><line stroke="rgb(0%,0%,0%)" stroke-width="1" x1="346.9067" x2="346.9067" y1="282.8978" y2="255.8756" /><line stroke="rgb(0%,0%,0%)" stroke-width="1" x1="346.9067" x2="358.3911" y1="255.8756" y2="255.8756" /><line stroke="rgb(0%,0%,0%)" stroke-width="1" x1="358.3911" x2="358.3911" y1="255.8756" y2="228.8533" /><line stroke="rgb(0%,0%,0%)" stroke-width="1" x1="358.3911" x2="346.9067" y1="228.8533" y2="228.8533" /><line stroke="rgb(0%,0%,0%)" stroke-width="1" x1="346.9067" x2="346.9067" y1="228.8533" y2="201.8311" /><line stroke="rgb(0%,0%,0%)" stroke-width="1" x1="346.9067" x2="358.3911" y1="201.8311" y2="201.8311" /><line stroke="rgb(0%,0%,0%)" stroke-width="1" x1="358.3911" x2="358.3911" y1="201.8311" y2="174.8089" /><line stroke="rgb(0%,0%,0%)" stroke-width="1" x1="358.3911" x2="346.9067" y1="174.8089" y2="174.8089" /><line stroke="rgb(0%,0%,0%)" stroke-width="1" x1="346.9067" x2="346.9067" y1="174.8089" y2="147.7867" /><line stroke="rgb(0%,0%,0%)" stroke-width="1" x1="346.9067" x2="358.3911" y1="147.7867" y2="147.7867" /><line stroke="rgb(0%,0%,0%)" stroke-width="1" x1="358.3911" x2="358.3911" y1="147.7867" y2="120.7644" /><line stroke="rgb(0%,0%,0%)" stroke-width="1" x1="358.3911" x2="346.9067" y1="120.7644" y2="120.7644" /><line stroke="rgb(0%,0%,0%)" stroke-width="1" x1="346.9067" x2="346.9067" y1="120.7644" y2="93.7422" /><line stroke="rgb(0%,0%,0%)" stroke-width="1" x1="346.9067" x2="358.3911" y1="93.7422" y2="93.7422" /><line stroke="rgb(0%,0%,0%)" stroke-width="1" x1="358.3911" x2="358.3911" y1="93.7422" y2="66.72" /><line stroke="rgb(0%,0%,0%)" stroke-width="1" x1="358.3911" x2="358.3911" y1="66.72" y2="50.0" /><line stroke="rgb(0%,0%,0%)" stroke-width="1" x1="358.3911" x2="50.0" y1="363.12" y2="363.12" /><line stroke="rgb(0%,0%,0%)" stroke-width="1" x1="50.0" x2="50.0" y1="363.12" y2="336.9422" /><line stroke="rgb(0%,0%,0%)" stroke-width="1" x1="50.0" x2="61.4844" y1="336.9422" y2="336.9422" /><line stroke="rgb(0%,0%,0%)" stroke-width="1" x1="61.4844" x2="61.4844" y1="336.9422" y2="309.92" /><line stroke="rgb(0%,0%,0%)" stroke-width="1" x1="61.4844" x2="50.0" y1="309.92" y2="309.92" /><line stroke="rgb(0%,0%,0%)" stroke-width="1" x1="50.0" x2="50.0" y1="309.92" y2="282.8978" /><line stroke="rgb(0%,0%,0%)" stroke-width="1" x1="50.0" x2="61.4844" y1="282.8978" y2="282.8978" /><line stroke="rgb(0%,0%,0%)" stroke-width="1" x1="61.4844" x2="61.4844" y1="282.8978" y2="255.8756" /><line stroke="rgb(0%,0%,0%)" stroke-width="1" x1="61.4844" x2="50.0" y1="255.8756" y2="255.8756" /><line stroke="rgb(0%,0%,0%)" stroke-width="1" x1="50.0" x2="50.0" y1="255.8756" y2="228.8533" /><line stroke="rgb(0%,0%,0%)" stroke-width="1" x1="50.0" x2="61.4844" y1="228.8533" y2="228.8533" /><line stroke="rgb(0%,0%,0%)" stroke-width="1" x1="61.4844" x2="61.4844" y1="228.8533" y2="201.8311" /><line stroke="rgb(0%,0%,0%)" stroke-width="1" x1="61.4844" x2="50.0" y1="201.8311" y2="201.8311" /><line stroke="rgb(0%,0%,0%)" stroke-width="1" x1="50.0" x2="50.0" y1="201.8311" y2="174.8089" /><line stroke="rgb(0%,0%,0%)" stroke-width="1" x1="50.0" x2="61.4844" y1="174.8089" y2="174.8089" /><line stroke="rgb(0%,0%,0%)" stroke-width="1" x1="61.4844" x2="61.4844" y1="174.8089" y2="147.7867" /><line stroke="rgb(0%,0%,0%)" stroke-width="1" x1="61.4844" x2="50.0" y1="147.7867" y2="147.7867" /><line stroke="rgb(0%,0%,0%)" stroke-width="1" x1="50.0" x2="50.0" y1="147.7867" y2="120.7644" /><line stroke="rgb(0%,0%,0%)" stroke-width="1" x1="50.0" x2="61.4844" y1="120.7644" y2="120.7644" /><line stroke="rgb(0%,0%,0%)" stroke-width="1" x1="61.4844" x2="61.4844" y1="120.7644" y2="93.7422" /><line stroke="rgb(0%,0%,0%)" stroke-width="1" x1="61.4844" x2="50.0" y1="93.7422" y2="93.7422" /><line stroke="rgb(0%,0%,0%)" stroke-width="1" x1="50.0" x2="50.0" y1="93.7422" y2="66.72" /><line stroke="rgb(0%,0%,0%)" stroke-width="1" x1="50.0" x2="50.0" y1="66.72" y2="50.0" /><rect fill="none" height="93.7333" stroke="rgb(0%,0%,0%)" stroke-width="1" width="67.5556" x="170.7556" y="58.4444" /><polygon fill="none" points="50.1689,335.0844 358.2222,335.0844 358.2222,336.7733 50.1689,336.7733 50.1689,335.0844" stroke="rgb(30%,30%,30%)" stroke-width="1" /><polygon fill="none" points="50.1689,308.0622 358.2222,308.0622 358.2222,309.7511 50.1689,309.7511 50.1689,308.0622" stroke="rgb(30%,30%,30%)" stroke-width="1" /><polygon fill="none" points="50.1689,281.04 358.2222,281.04 358.2222,282.7289 50.1689,282.7289 50.1689,281.04" stroke="rgb(30%,30%,30%)" stroke-width="1" /><polygon fill="none" points="50.1689,254.0178 358.2222,254.0178 358.2222,255.7067 50.1689,255.7067 50.1689,254.0178" stroke="rgb(30%,30%,30%)" stroke-width="1" /><polygon fill="none" points="50.1689,226.9956 358.2222,226.9956 358.2222,228.6844 50.1689,228.6844 50.1689,226.9956" stroke="rgb(30%,30%,30%)" stroke-width="1" /><polygon fill="none" points="50.1689,199.9733 358.2222,199.9733 358.2222,201.6622 50.1689,201.6622 50.1689,199.9733" stroke="rgb(30%,30%,30%)" stroke-width="1" /><polygon fill="none" points="50.1689,172.9511 358.2222,172.9511 358.2222,174.64 50.1689,174.64 50.1689,172.9511" stroke="rgb(30%,30%,30%)" stroke-width="1" /><polygon fill="none" points="50.1689,145.9289 170.7556,145.9289 170.7556,147.6178 50.1689,147.6178 50.1689,145.9289" stroke="rgb(30%,30%,30%)" stroke-width="1" /><polygon fill="none" points="238.48,145.9289 358.2222,145.9289 358.2222,147.6178 238.48,147.6178 238.48,145.9289" stroke="rgb(30%,30%,30%)" stroke-width="1" /><polygon fill="none" points="50.1689,118.9067 170.7556,118.9067 170.7556,120.5956 50.1689,120.5956 50.1689,118.9067" stroke="rgb(30%,30%,30%)" stroke-width="1" /><polygon fill="none" points="238.48,118.9067 358.2222,118.9067 358.2222,120.5956 238.48,120.5956 238.48,118.9067" stroke="rgb(30%,30%,30%)" stroke-width="1" /><polygon fill="none" points="50.1689,91.8844 170.7556,91.8844 170.7556,93.5733 50.1689,93.5733 50.1689,91.8844" stroke="rgb(30%,30%,30%)" stroke-width="1" /><polygon fill="none" points="238.48,91.8844 358.2222,91.8844 358.2222,93.5733 238.48,93.5733 238.48,91.8844" stroke="rgb(30%,30%,30%)" stroke-width="1" /><polygon fill="none" points="50.1689,64.8622 170.7556,64.8622 170.7556,66.5511 50.1689,66.5511 50.1689,64.8622" stroke="rgb(30%,30%,30%)" stroke-width="1" /><polygon fill="none" points="238.48,64.8622 358.2222,64.8622 358.2222,66.5511 238.48,66.5511 238.48,64.8622" stroke="rgb(30%,30%,30%)" stroke-width="1" /><line stroke="rgb(0%,0%,0%)" stroke-width="1" x1="408.3911" x2="508.0356" y1="93.5733" y2="50.0" /><line stroke="rgb(0%,0%,0%)" stroke-width="1" x1="508.0356" x2="607.68" y1="50.0" y2="93.5733" /><line stroke="rgb(0%,0%,0%)" stroke-width="1" x1="607.68" x2="607.68" y1="408.3822" y2="382.2044" /><line stroke="rgb(0%,0%,0%)" stroke-width="1" x1="607.68" x2="619.1644" y1="382.2044" y2="382.2044" /><line stroke="rgb(0%,0%,0%)" stroke-width="1" x1="619.1644" x2="619.1644" y1="382.2044" y2="355.1822" /><line stroke="rgb(0%,0%,0%)" stroke-width="1" x1="619.1644" x2="607.68" y1="355.1822" y2="355.1822" /><line stroke="rgb(0%,0%,0%)" stroke-width="1" x1="607.68" x2="607.68" y1="355.1822" y2="328.16" /><line stroke="rgb(0%,0%,0%)" stroke-width="1" x1="607.68" x2="619.1644" y1="328.16" y2="328.16" /><line stroke="rgb(0%,0%,0%)" stroke-width="1" x1="619.1644" x2="619.1644" y1="328.16" y2="301.1378" /><line stroke="rgb(0%,0%,0%)" stroke-width="1" x1="619.1644" x2="607.68" y1="301.1378" y2="301.1378" /><line stroke="rgb(0%,0%,0%)" stroke-width="1" x1="607.68" x2="607.68" y1="301.1378" y2="274.1156" /><line stroke="rgb(0%,0%,0%)" stroke-width="1" x1="607.68" x2="619.1644" y1="274.1156" y2="274.1156" /><line stroke="rgb(0%,0%,0%)" stroke-width="1" x1="619.1644" x2="619.1644" y1="274.1156" y2="247.0933" /><line stroke="rgb(0%,0%,0%)" stroke-width="1" x1="619.1644" x2="607.68" y1="247.0933" y2="247.0933" /><line stroke="rgb(0%,0%,0%)" stroke-width="1" x1="607.68" x2="607.68" y1="247.0933" y2="220.0711" /><line stroke="rgb(0%,0%,0%)" stroke-width="1" x1="607.68" x2="619.1644" y1="220.0711" y2="220.0711" /><line stroke="rgb(0%,0%,0%)" stroke-width="1" x1="619.1644" x2="619.1644" y1="220.0711" y2="193.0489" /><line stroke="rgb(0%,0%,0%)" stroke-width="1" x1="619.1644" x2="607.68" y1="193.0489" y2="193.0489" /><line stroke="rgb(0%,0%,0%)" stroke-width="1" x1="607.68" x2="607.68" y1="193.0489" y2="166.0267" /><line stroke="rgb(0%,0%,0%)" stroke-width="1" x1="607.68" x2="619.1644" y1="166.0267" y2="166.0267" /><line stroke="rgb(0%,0%,0%)" stroke-width="1" x1="619.1644" x2="619.1644" y1="166.0267" y2="139.0044" /><line stroke="rgb(0%,0%,0%)" stroke-width="1" x1="619.1644" x2="607.68" y1="139.0044" y2="139.0044" /><line stroke="rgb(0%,0%,0%)" stroke-width="1" x1="607.68" x2="607.68" y1="139.0044" y2="111.9822" /><line stroke="rgb(0%,0%,0%)" stroke-width="1" x1="607.68" x2="607.68" y1="111.9822" y2="93.5733" /><line stroke="rgb(0%,0%,0%)" stroke-width="1" x1="607.68" x2="408.3911" y1="408.3822" y2="408.3822" /><line stroke="rgb(0%,0%,0%)" stroke-width="1" x1="408.3911" x2="408.3911" y1="408.3822" y2="382.2044" /><line stroke="rgb(0%,0%,0%)" stroke-width="1" x1="408.3911" x2="396.9067" y1="382.2044" y2="382.2044" /><line stroke="rgb(0%,0%,0%)" stroke-width="1" x1="396.9067" x2="396.9067" y1="382.2044" y2="355.1822" /><line stroke="rgb(0%,0%,0%)" stroke-width="1" x1="396.9067" x2="408.3911" y1="355.1822" y2="355.1822" /><line stroke="rgb(0%,0%,0%)" stroke-width="1" x1="408.3911" x2="408.3911" y1="355.1822" y2="328.16" /><line stroke="rgb(0%,0%,0%)" stroke-width="1" x1="408.3911" x2="396.9067" y1="328.16" y2="328.16" /><line stroke="rgb(0%,0%,0%)" stroke-width="1" x1="396.9067" x2="396.9067" y1="328.16" y2="301.1378" /><line stroke="rgb(0%,0%,0%)" stroke-width="1" x1="396.9067" x2="408.3911" y1="301.1378" y2="301.1378" /><line stroke="rgb(0%,0%,0%)" stroke-width="1" x1="408.3911" x2="408.3911" y1="301.1378" y2="274.1156" /><line stroke="rgb(0%,0%,0%)" stroke-width="1" x1="408.3911" x2="396.9067" y1="274.1156" y2="274.1156" /><line stroke="rgb(0%,0%,0%)" stroke-width="1" x1="396.9067" x2="396.9067" y1="274.1156" y2="247.0933" /><line stroke="rgb(0%,0%,0%)" stroke-width="1" x1="396.9067" x2="408.3911" y1="247.0933" y2="247.0933" /><line stroke="rgb(0%,0%,0%)" stroke-width="1" x1="408.3911" x2="408.3911" y1="247.0933" y2="220.0711" /><line stroke="rgb(0%,0%,0%)" stroke-width="1" x1="408.3911" x2="396.9067" y1="220.0711" y2="220.0711" /><line stroke="rgb(0%,0%,0%)" stroke-width="1" x1="396.9067" x2="396.9067" y1="220.0711" y2="193.0489" /><line stroke="rgb(0%,0%,0%)" stroke-width="1" x1="396.9067" x2="408.3911" y1="193.0489" y2="193.0489" /><line stroke="rgb(0%,0%,0%)" stroke-width="1" x1="408.3911" x2="408.3911" y1="193.0489" y2="166.0267" /><line stroke="rgb(0%,0%,0%)" stroke-width="1" x1="408.3911" x2="396.9067" y1="166.0267" y2="166.0267" /><line stroke="rgb(0%,0%,0%)" stroke-width="1" x1="396.9067" x2="396.9067" y1="166.0267" y2="139.0044" /><line stroke="rgb(0%,0%,0%)" stroke-width="1" x1="396.9067" x2="408.3911" y1="139.0044" y2="139.0044" /><line stroke="rgb(0%,0%,0%)" stroke-width="1" x1="408.3911" x2="408.3911" y1="139.0044" y2="111.9822" /><line stroke="rgb(0%,0%,0%)" stroke-width="1" x1="408.3911" x2="408.3911" y1="111.9822" y2="93.5733" /><line stroke="rgb(0%,0%,0%)" stroke-width="1" x1="440.48" x2="440.48" y1="408.3822" y2="104.3822" /><line stroke="rgb(0%,0%,0%)" stroke-width="1" x1="440.48" x2="575.5911" y1="104.3822" y2="104.3822" /><line stroke="rgb(0%,0%,0%)" stroke-width="1" x1="575.5911" x2="575.5911" y1="104.3822" y2="408.3822" /><polygon fill="none" points="408.56,380.3467 440.48,380.3467 440.48,382.0356 408.56,382.0356 408.56,380.3467" stroke="rgb(30%,30%,30%)" stroke-width="1" /><polygon fill="none" points="575.76,380.3467 607.5111,380.3467 607.5111,382.0356 575.76,382.0356 575.76,380.3467" stroke="rgb(30%,30%,30%)" stroke-width="1" /><polygon fill="none" points="408.56,353.3244 440.48,353.3244 440.48,355.0133 408.56,355.0133 408.56,353.3244" stroke="rgb(30%,30%,30%)" stroke-width="1" /><polygon fill="none" points="575.76,353.3244 607.5111,353.3244 607.5111,355.0133 575.76,355.0133 575.76,353.3244" stroke="rgb(30%,30%,30%)" stroke-width="1" /><polygon fill="none" points="408.56,326.3022 440.48,326.3022 440.48,327.9911 408.56,327.9911 408.56,326.3022" stroke="rgb(30%,30%,30%)" stroke-width="1" /><polygon fill="none" points="575.76,326.3022 607.5111,326.3022 607.5111,327.9911 575.76,327.9911 575.76,326.3022" stroke="rgb(30%,30%,30%)" stroke-width="1" /><polygon fill="none" points="408.56,299.28 440.48,299.28 440.48,300.9689 408.56,300.9689 408.56,299.28" stroke="rgb(30%,30%,30%)" stroke-width="1" /><polygon fill="none" points="575.76,299.28 607.5111,299.28 607.5111,300.9689 575.76,300.9689 575.76,299.28" stroke="rgb(30%,30%,30%)" stroke-width="1" /><polygon fill="none" points="408.56,272.2578 440.48,272.2578 440.48,273.9467 408.56,273.9467 408.56,272.2578" stroke="rgb(30%,30%,30%)" stroke-width="1" /><polygon fill="none" points="575.76,272.2578 607.5111,272.2578 607.5111,273.9467 575.76,273.9467 575.76,272.2578" stroke="rgb(30%,30%,30%)" stroke-width="1" /><polygon fill="none" points="408.56,245.2356 440.48,245.2356 440.48,246.9244 408.56,246.9244 408.56,245.2356" stroke="rgb(30%,30%,30%)" stroke-width="1" /><polygon fill="none" points="575.76,245.2356 607.5111,245.2356 607.5111,246.9244 575.76,246.9244 575.76,245.2356" stroke="rgb(30%,30%,30%)" stroke-width="1" /><polygon fill="none" points="408.56,218.2133 440.48,218.2133 440.48,219.9022 408.56,219.9022 408.56,218.2133" stroke="rgb(30%,30%,30%)" stroke-width="1" /><polygon fill="none" points="575.76,218.2133 607.5111,218.2133 607.5111,219.9022 575.76,219.9022 575.76,218.2133" stroke="rgb(30%,30%,30%)" stroke-width="1" /><polygon fill="none" points="408.56,191.1911 440.48,191.1911 440.48,192.88 408.56,192.88 408.56,191.1911" stroke="rgb(30%,30%,30%)" stroke-width="1" /><polygon fill="none" points="575.76,191.1911 607.5111,191.1911 607.5111,192.88 575.76,192.88 575.76,191.1911" stroke="rgb(30%,30%,30%)" stroke-width="1" /><polygon fill="none" points="408.56,164.1689 440.48,164.1689 440.48,165.8578 408.56,165.8578 408.56,164.1689" stroke="rgb(30%,30%,30%)" stroke-width="1" /><polygon fill="none" points="575.76,164.1689 607.5111,164.1689 607.5111,165.8578 575.76,165.8578 575.76,164.1689" stroke="rgb(30%,30%,30%)" stroke-width="1" /><polygon fill="none" points="408.56,137.1467 440.48,137.1467 440.48,138.8356 408.56,138.8356 408.56,137.1467" stroke="rgb(30%,30%,30%)" stroke-width="1" /><polygon fill="none" points="575.76,137.1467 607.5111,137.1467 607.5111,138.8356 575.76,138.8356 575.76,137.1467" stroke="rgb(30%,30%,30%)" stroke-width="1" /><polygon fill="none" points="408.56,110.1244 440.48,110.1244 440.48,111.8133 408.56,111.8133 408.56,110.1244" stroke="rgb(30%,30%,30%)" stroke-width="1" /><polygon fill="none" points="575.76,110.1244 607.5111,110.1244 607.5111,111.8133 575.76,111.8133 575.76,110.1244" stroke="rgb(30%,30%,30%)" stroke-width="1" /><polygon fill="none" points="430.5156,83.1022 585.5556,83.1022 585.5556,84.7911 430.5156,84.7911 430.5156,83.1022" stroke="rgb(30%,30%,30%)" stroke-width="1" /><rect fill="none" height="304.0" stroke="rgb(30%,30%,30%)" stroke-width="1" width="1.6889" x="470.0356" y="104.3822" /><rect fill="none" height="304.0" stroke="rgb(30%,30%,30%)" stroke-width="1" width="1.6889" x="495.3689" y="104.3822" /><rect fill="none" height="304.0" stroke="rgb(30%,30%,30%)" stroke-width="1" width="1.6889" x="520.7022" y="104.3822" /><rect fill="none" height="304.0" stroke="rgb(30%,30%,30%)" stroke-width="1" width="1.6889" x="546.0356" y="104.3822" /><polygon fill="none" points="575.5911,149.9822 524.9244,154.2044 575.5911,158.4267 575.5911,149.9822" stroke="rgb(30%,30%,30%)" stroke-width="1" /><polygon fill="none" points="575.5911,256.3822 524.9244,260.6044 575.5911,264.8267 575.5911,256.3822" stroke="rgb(30%,30%,30%)" stroke-width="1" /><polygon fill="none" points="575.5911,362.7822 524.9244,367.0044 575.5911,371.2267 575.5911,362.7822" stroke="rgb(30%,30%,30%)" stroke-width="1" /><line stroke="rgb(0%,0%,0%)" stroke-width="1" x1="657.68" x2="966.0711" y1="50.0" y2="50.0" /><line stroke="rgb(0%,0%,0%)" stroke-width="1" x1="966.0711" x2="966.0711" y1="363.12" y2="336.9422" /><line stroke="rgb(0%,0%,0%)" stroke-width="1" x1="966.0711" x2="954.5867" y1="336.9422" y2="336.9422" /><line stroke="rgb(0%,0%,0%)" stroke-width="1" x1="954.5867" x2="954.5867" y1="336.9422" y2="309.92" /><line stroke="rgb(0%,0%,0%)" stroke-width="1" x1="954.5867" x2="966.0711" y1="309.92" y2="309.92" /><line stroke="rgb(0%,0%,0%)" stroke-width="1" x1="966.0711" x2="966.0711" y1="309.92" y2="282.8978" /><line stroke="rgb(0%,0%,0%)" stroke-width="1" x1="966.0711" x2="954.5867" y1="282.8978" y2="282.8978" /><line stroke="rgb(0%,0%,0%)" stroke-width="1" x1="954.5867" x2="954.5867" y1="282.8978" y2="255.8756" /><line stroke="rgb(0%,0%,0%)" stroke-width="1" x1="954.5867" x2="966.0711" y1="255.8756" y2="255.8756" /><line stroke="rgb(0%,0%,0%)" stroke-width="1" x1="966.0711" x2="966.0711" y1="255.8756" y2="228.8533" /><line stroke="rgb(0%,0%,0%)" stroke-width="1" x1="966.0711" x2="954.5867" y1="228.8533" y2="228.8533" /><line stroke="rgb(0%,0%,0%)" stroke-width="1" x1="954.5867" x2="954.5867" y1="228.8533" y2="201.8311" /><line stroke="rgb(0%,0%,0%)" stroke-width="1" x1="954.5867" x2="966.0711" y1="201.8311" y2="201.8311" /><line stroke="rgb(0%,0%,0%)" stroke-width="1" x1="966.0711" x2="966.0711" y1="201.8311" y2="174.8089" /><line stroke="rgb(0%,0%,0%)" stroke-width="1" x1="966.0711" x2="954.5867" y1="174.8089" y2="174.8089" /><line stroke="rgb(0%,0%,0%)" stroke-width="1" x1="954.5867" x2="954.5867" y1="174.8089" y2="147.7867" /><line stroke="rgb(0%,0%,0%)" stroke-width="1" x1="954.5867" x2="966.0711" y1="147.7867" y2="147.7867" /><line stroke="rgb(0%,0%,0%)" stroke-width="1" x1="966.0711" x2="966.0711" y1="147.7867" y2="120.7644" /><line stroke="rgb(0%,0%,0%)" stroke-width="1" x1="966.0711" x2="954.5867" y1="120.7644" y2="120.7644" /><line stroke="rgb(0%,0%,0%)" stroke-width="1" x1="954.5867" x2="954.5867" y1="120.7644" y2="93.7422" /><line stroke="rgb(0%,0%,0%)" stroke-width="1" x1="954.5867" x2="966.0711" y1="93.7422" y2="93.7422" /><line stroke="rgb(0%,0%,0%)" stroke-width="1" x1="966.0711" x2="966.0711" y1="93.7422" y2="66.72" /><line stroke="rgb(0%,0%,0%)" stroke-width="1" x1="966.0711" x2="966.0711" y1="66.72" y2="50.0" /><line stroke="rgb(0%,0%,0%)" stroke-width="1" x1="966.0711" x2="657.68" y1="363.12" y2="363.12" /><line stroke="rgb(0%,0%,0%)" stroke-width="1" x1="657.68" x2="657.68" y1="363.12" y2="336.9422" /><line stroke="rgb(0%,0%,0%)" stroke-width="1" x1="657.68" x2="669.1644" y1="336.9422" y2="336.9422" /><line stroke="rgb(0%,0%,0%)" stroke-width="1" x1="669.1644" x2="669.1644" y1="336.9422" y2="309.92" /><line stroke="rgb(0%,0%,0%)" stroke-width="1" x1="669.1644" x2="657.68" y1="309.92" y2="309.92" /><line stroke="rgb(0%,0%,0%)" stroke-width="1" x1="657.68" x2="657.68" y1="309.92" y2="282.8978" /><line stroke="rgb(0%,0%,0%)" stroke-width="1" x1="657.68" x2="669.1644" y1="282.8978" y2="282.8978" /><line stroke="rgb(0%,0%,0%)" stroke-width="1" x1="669.1644" x2="669.1644" y1="282.8978" y2="255.8756" /><line stroke="rgb(0%,0%,0%)" stroke-width="1" x1="669.1644" x2="657.68" y1="255.8756" y2="255.8756" /><line stroke="rgb(0%,0%,0%)" stroke-width="1" x1="657.68" x2="657.68" y1="255.8756" y2="228.8533" /><line stroke="rgb(0%,0%,0%)" stroke-width="1" x1="657.68" x2="669.1644" y1="228.8533" y2="228.8533" /><line stroke="rgb(0%,0%,0%)" stroke-width="1" x1="669.1644" x2="669.1644" y1="228.8533" y2="201.8311" /><line stroke="rgb(0%,0%,0%)" stroke-width="1" x1="669.1644" x2="657.68" y1="201.8311" y2="201.8311" /><line stroke="rgb(0%,0%,0%)" stroke-width="1" x1="657.68" x2="657.68" y1="201.8311" y2="174.8089" /><line stroke="rgb(0%,0%,0%)" stroke-width="1" x1="657.68" x2="669.1644" y1="174.8089" y2="174.8089" /><line stroke="rgb(0%,0%,0%)" stroke-width="1" x1="669.1644" x2="669.1644" y1="174.8089" y2="147.7867" /><line stroke="rgb(0%,0%,0%)" stroke-width="1" x1="669.1644" x2="657.68" y1="147.7867" y2="147.7867" /><line stroke="rgb(0%,0%,0%)" stroke-width="1" x1="657.68" x2="657.68" y1="147.7867" y2="120.7644" /><line stroke="rgb(0%,0%,0%)" stroke-width="1" x1="657.68" x2="669.1644" y1="120.7644" y2="120.7644" /><line stroke="rgb(0%,0%,0%)" stroke-width="1" x1="669.1644" x2="669.1644" y1="120.7644" y2="93.7422" /><line stroke="rgb(0%,0%,0%)" stroke-width="1" x1="669.1644" x2="657.68" y1="93.7422" y2="93.7422" /><line stroke="rgb(0%,0%,0%)" stroke-width="1" x1="657.68" x2="657.68" y1="93.7422" y2="66.72" /><line stroke="rgb(0%,0%,0%)" stroke-width="1" x1="657.68" x2="657.68" y1="66.72" y2="50.0" /><polygon fill="none" points="657.8489,335.0844 965.9022,335.0844 965.9022,336.7733 657.8489,336.7733 657.8489,335.0844" stroke="rgb(30%,30%,30%)" stroke-width="1" /><polygon fill="none" points="657.8489,308.0622 965.9022,308.0622 965.9022,309.7511 657.8489,309.7511 657.8489,308.0622" stroke="rgb(30%,30%,30%)" stroke-width="1" /><polygon fill="none" points="657.8489,281.04 965.9022,281.04 965.9022,282.7289 657.8489,282.7289 657.8489,281.04" stroke="rgb(30%,30%,30%)" stroke-width="1" /><polygon fill="none" points="657.8489,254.0178 965.9022,254.0178 965.9022,255.7067 657.8489,255.7067 657.8489,254.0178" stroke="rgb(30%,30%,30%)" stroke-width="1" /><polygon fill="none" points="657.8489,226.9956 965.9022,226.9956 965.9022,228.6844 657.8489,228.6844 657.8489,226.9956" stroke="rgb(30%,30%,30%)" stroke-width="1" /><polygon fill="none" points="657.8489,199.9733 965.9022,199.9733 965.9022,201.6622 657.8489,201.6622 657.8489,199.9733" stroke="rgb(30%,30%,30%)" stroke-width="1" /><polygon fill="none" points="657.8489,172.9511 965.9022,172.9511 965.9022,174.64 657.8489,174.64 657.8489,172.9511" stroke="rgb(30%,30%,30%)" stroke-width="1" /><polygon fill="none" points="657.8489,145.9289 965.9022,145.9289 965.9022,147.6178 657.8489,147.6178 657.8489,145.9289" stroke="rgb(30%,30%,30%)" stroke-width="1" /><polygon fill="none" points="657.8489,118.9067 965.9022,118.9067 965.9022,120.5956 657.8489,120.5956 657.8489,118.9067" stroke="rgb(30%,30%,30%)" stroke-width="1" /><polygon fill="none" points="657.8489,91.8844 965.9022,91.8844 965.9022,93.5733 657.8489,93.5733 657.8489,91.8844" stroke="rgb(30%,30%,30%)" stroke-width="1" /><polygon fill="none" points="657.8489,64.8622 965.9022,64.8622 965.9022,66.5511 657.8489,66.5511 657.8489,64.8622" stroke="rgb(30%,30%,30%)" stroke-width="1" /><line stroke="rgb(0%,0%,0%)" stroke-width="1" x1="50.0" x2="149.6444" y1="501.9556" y2="458.3822" /><line stroke="rgb(0%,0%,0%)" stroke-width="1" x1="149.6444" x2="249.2889" y1="458.3822" y2="501.9556" /><line stroke="rgb(0%,0%,0%)" stroke-width="1" x1="249.2889" x2="249.2889" y1="816.7644" y2="790.5867" /><line stroke="rgb(0%,0%,0%)" stroke-width="1" x1="249.2889" x2="260.7733" y1="790.5867" y2="790.5867" /><line stroke="rgb(0%,0%,0%)" stroke-width="1" x1="260.7733" x2="260.7733" y1="790.5867" y2="763.5644" /><line stroke="rgb(0%,0%,0%)" stroke-width="1" x1="260.7733" x2="249.2889" y1="763.5644" y2="763.5644" /><line stroke="rgb(0%,0%,0%)" stroke-width="1" x1="249.2889" x2="249.2889" y1="763.5644" y2="736.5422" /><line stroke="rgb(0%,0%,0%)" stroke-width="1" x1="249.2889" x2="260.7733" y1="736.5422" y2="736.5422" /><line stroke="rgb(0%,0%,0%)" stroke-width="1" x1="260.7733" x2="260.7733" y1="736.5422" y2="709.52" /><line stroke="rgb(0%,0%,0%)" stroke-width="1" x1="260.7733" x2="249.2889" y1="709.52" y2="709.52" /><line stroke="rgb(0%,0%,0%)" stroke-width="1" x1="249.2889" x2="249.2889" y1="709.52" y2="682.4978" /><line stroke="rgb(0%,0%,0%)" stroke-width="1" x1="249.2889" x2="260.7733" y1="682.4978" y2="682.4978" /><line stroke="rgb(0%,0%,0%)" stroke-width="1" x1="260.7733" x2="260.7733" y1="682.4978" y2="655.4756" /><line stroke="rgb(0%,0%,0%)" stroke-width="1" x1="260.7733" x2="249.2889" y1="655.4756" y2="655.4756" /><line stroke="rgb(0%,0%,0%)" stroke-width="1" x1="249.2889" x2="249.2889" y1="655.4756" y2="628.4533" /><line stroke="rgb(0%,0%,0%)" stroke-width="1" x1="249.2889" x2="260.7733" y1="628.4533" y2="628.4533" /><line stroke="rgb(0%,0%,0%)" stroke-width="1" x1="260.7733" x2="260.7733" y1="628.4533" y2="601.4311" /><line stroke="rgb(0%,0%,0%)" stroke-width="1" x1="260.7733" x2="249.2889" y1="601.4311" y2="601.4311" /><line stroke="rgb(0%,0%,0%)" stroke-width="1" x1="249.2889" x2="249.2889" y1="601.4311" y2="574.4089" /><line stroke="rgb(0%,0%,0%)" stroke-width="1" x1="249.2889" x2="260.7733" y1="574.4089" y2="574.4089" /><line stroke="rgb(0%,0%,0%)" stroke-width="1" x1="260.7733" x2="260.7733" y1="574.4089" y2="547.3867" /><line stroke="rgb(0%,0%,0%)" stroke-width="1" x1="260.7733" x2="249.2889" y1="547.3867" y2="547.3867" /><line stroke="rgb(0%,0%,0%)" stroke-width="1" x1="249.2889" x2="249.2889" y1="547.3867" y2="520.3644" /><line stroke="rgb(0%,0%,0%)" stroke-width="1" x1="249.2889" x2="249.2889" y1="520.3644" y2="501.9556" /><line stroke="rgb(0%,0%,0%)" stroke-width="1" x1="249.2889" x2="50.0" y1="816.7644" y2="816.7644" /><line stroke="rgb(0%,0%,0%)" stroke-width="1" x1="50.0" x2="50.0" y1="816.7644" y2="790.5867" /><line stroke="rgb(0%,0%,0%)" stroke-width="1" x1="50.0" x2="38.5156" y1="790.5867" y2="790.5867" /><line stroke="rgb(0%,0%,0%)" stroke-width="1" x1="38.5156" x2="38.5156" y1="790.5867" y2="763.5644" /><line stroke="rgb(0%,0%,0%)" stroke-width="1" x1="38.5156" x2="50.0" y1="763.5644" y2="763.5644" /><line stroke="rgb(0%,0%,0%)" stroke-width="1" x1="50.0" x2="50.0" y1="763.5644" y2="736.5422" /><line stroke="rgb(0%,0%,0%)" stroke-width="1" x1="50.0" x2="38.5156" y1="736.5422" y2="736.5422" /><line stroke="rgb(0%,0%,0%)" stroke-width="1" x1="38.5156" x2="38.5156" y1="736.5422" y2="709.52" /><line stroke="rgb(0%,0%,0%)" stroke-width="1" x1="38.5156" x2="50.0" y1="709.52" y2="709.52" /><line stroke="rgb(0%,0%,0%)" stroke-width="1" x1="50.0" x2="50.0" y1="709.52" y2="682.4978" /><line stroke="rgb(0%,0%,0%)" stroke-width="1" x1="50.0" x2="38.5156" y1="682.4978" y2="682.4978" /><line stroke="rgb(0%,0%,0%)" stroke-width="1" x1="38.5156" x2="38.5156" y1="682.4978" y2="655.4756" /><line stroke="rgb(0%,0%,0%)" stroke-width="1" x1="38.5156" x2="50.0" y1="655.4756" y2="655.4756" /><line stroke="rgb(0%,0%,0%)" stroke-width="1" x1="50.0" x2="50.0" y1="655.4756" y2="628.4533" /><line stroke="rgb(0%,0%,0%)" stroke-width="1" x1="50.0" x2="38.5156" y1="628.4533" y2="628.4533" /><line stroke="rgb(0%,0%,0%)" stroke-width="1" x1="38.5156" x2="38.5156" y1="628.4533" y2="601.4311" /><line stroke="rgb(0%,0%,0%)" stroke-width="1" x1="38.5156" x2="50.0" y1="601.4311" y2="601.4311" /><line stroke="rgb(0%,0%,0%)" stroke-width="1" x1="50.0" x2="50.0" y1="601.4311" y2="574.4089" /><line stroke="rgb(0%,0%,0%)" stroke-width="1" x1="50.0" x2="38.5156" y1="574.4089" y2="574.4089" /><line stroke="rgb(0%,0%,0%)" stroke-width="1" x1="38.5156" x2="38.5156" y1="574.4089" y2="547.3867" /><line stroke="rgb(0%,0%,0%)" stroke-width="1" x1="38.5156" x2="50.0" y1="547.3867" y2="547.3867" /><line stroke="rgb(0%,0%,0%)" stroke-width="1" x1="50.0" x2="50.0" y1="547.3867" y2="520.3644" /><line stroke="rgb(0%,0%,0%)" stroke-width="1" x1="50.0" x2="50.0" y1="520.3644" y2="501.9556" /><polygon fill="none" points="50.1689,788.7289 249.12,788.7289 249.12,790.4178 50.1689,790.4178 50.1689,788.7289" stroke="rgb(30%,30%,30%)" stroke-width="1" /><polygon fill="none" points="50.1689,761.7067 249.12,761.7067 249.12,763.3956 50.1689,763.3956 50.1689,761.7067" stroke="rgb(30%,30%,30%)" stroke-width="1" /><polygon fill="none" points="50.1689,734.6844 249.12,734.6844 249.12,736.3733 50.1689,736.3733 50.1689,734.6844" stroke="rgb(30%,30%,30%)" stroke-width="1" /><polygon fill="none" points="50.1689,707.6622 249.12,707.6622 249.12,709.3511 50.1689,709.3511 50.1689,707.6622" stroke="rgb(30%,30%,30%)" stroke-width="1" /><polygon fill="none" points="50.1689,680.64 249.12,680.64 249.12,682.3289 50.1689,682.3289 50.1689,680.64" stroke="rgb(30%,30%,30%)" stroke-width="1" /><polygon fill="none" points="50.1689,653.6178 249.12,653.6178 249.12,655.3067 50.1689,655.3067 50.1689,653.6178" stroke="rgb(30%,30%,30%)" stroke-width="1" /><polygon fill="none" points="50.1689,626.5956 249.12,626.5956 249.12,628.2844 50.1689,628.2844 50.1689,626.5956" stroke="rgb(30%,30%,30%)" stroke-width="1" /><polygon fill="none" points="50.1689,599.5733 249.12,599.5733 249.12,601.2622 50.1689,601.2622 50.1689,599.5733" stroke="rgb(30%,30%,30%)" stroke-width="1" /><polygon fill="none" points="50.1689,572.5511 249.12,572.5511 249.12,574.24 50.1689,574.24 50.1689,572.5511" stroke="rgb(30%,30%,30%)" stroke-width="1" /><polygon fill="none" points="50.1689,545.5289 249.12,545.5289 249.12,547.2178 50.1689,547.2178 50.1689,545.5289" stroke="rgb(30%,30%,30%)" stroke-width="1" /><polygon fill="none" points="50.1689,518.5067 249.12,518.5067 249.12,520.1956 50.1689,520.1956 50.1689,518.5067" stroke="rgb(30%,30%,30%)" stroke-width="1" /><polygon fill="none" points="72.1244,491.4844 227.1644,491.4844 227.1644,493.1733 72.1244,493.1733 72.1244,491.4844" stroke="rgb(30%,30%,30%)" stroke-width="1" /><line stroke="rgb(0%,0%,0%)" stroke-width="1" x1="299.2889" x2="624.5689" y1="458.3822" y2="458.3822" /><line stroke="rgb(0%,0%,0%)" stroke-width="1" x1="624.5689" x2="624.5689" y1="458.3822" y2="614.7733" /><line stroke="rgb(0%,0%,0%)" stroke-width="1" x1="624.5689" x2="299.2889" y1="614.7733" y2="614.7733" /><line stroke="rgb(0%,0%,0%)" stroke-width="1" x1="299.2889" x2="299.2889" y1="614.7733" y2="458.3822" /><line stroke="rgb(0%,0%,0%)" stroke-width="1" x1="674.5689" x2="999.8489" y1="458.3822" y2="458.3822" /><line stroke="rgb(0%,0%,0%)" stroke-width="1" x1="999.8489" x2="999.8489" y1="458.3822" y2="614.7733" /><line stroke="rgb(0%,0%,0%)" stroke-width="1" x1="999.8489" x2="674.5689" y1="614.7733" y2="614.7733" /><line stroke="rgb(0%,0%,0%)" stroke-width="1" x1="674.5689" x2="674.5689" y1="614.7733" y2="458.3822" /></svg>