<?xml version="1.0" encoding="utf-8" ?>
<svg baseProfile="tiny" height="760.0" version="1.2" width="760.0" xmlns="http://www.w3.org/2000/svg" xmlns:ev="http://www.w3.org/2001/xml-events" xmlns:xlink="http://www.w3.org/1999/xlink"><defs /><line stroke="rgb(0%,0%,0%)" stroke-width="1" x1="50.0" x2="79.4226" y1="62.8661" y2="50.0" /><line stroke="rgb(0%,0%,0%)" stroke-width="1" x1="79.4226" x2="108.8451" y1="50.0" y2="62.8661" /><line stroke="rgb(0%,0%,0%)" stroke-width="1" x1="108.8451" x2="108.8451" y1="155.8215" y2="148.0919" /><line stroke="rgb(0%,0%,0%)" stroke-width="1" x1="108.8451" x2="101.2152" y1="148.0919" y2="148.0919" /><line stroke="rgb(0%,0%,0%)" stroke-width="1" x1="101.2152" x2="101.2152" y1="148.0919" y2="140.1129" /><line stroke="rgb(0%,0%,0%)" stroke-width="1" x1="101.2152" x2="108.8451" y1="140.1129" y2="140.1129" /><line stroke="rgb(0%,0%,0%)" stroke-width="1" x1="108.8451" x2="108.8451" y1="140.1129" y2="132.1339" /><line stroke="rgb(0%,0%,0%)" stroke-width="1" x1="108.8451" x2="101.2152" y1="132.1339" y2="132.1339" /><line stroke="rgb(0%,0%,0%)" stroke-width="1" x1="101.2152" x2="101.2152" y1="132.1339" y2="124.1549" /><line stroke="rgb(0%,0%,0%)" stroke-width="1" x1="101.2152" x2="108.8451" y1="124.1549" y2="124.1549" /><line stroke="rgb(0%,0%,0%)" stroke-width="1" x1="108.8451" x2="108.8451" y1="124.1549" y2="116.1759" /><line stroke="rgb(0%,0%,0%)" stroke-width="1" x1="108.8451" x2="101.2152" y1="116.1759" y2="116.1759" /><line stroke="rgb(0%,0%,0%)" stroke-width="1" x1="101.2152" x2="101.2152" y1="116.1759" y2="108.1969" /><line stroke="rgb(0%,0%,0%)" stroke-width="1" x1="101.2152" x2="108.8451" y1="108.1969" y2="108.1969" /><line stroke="rgb(0%,0%,0%)" stroke-width="1" x1="108.8451" x2="108.8451" y1="108.1969" y2="100.2178" /><line stroke="rgb(0%,0%,0%)" stroke-width="1" x1="108.8451" x2="101.2152" y1="100.2178" y2="100.2178" /><line stroke="rgb(0%,0%,0%)" stroke-width="1" x1="101.2152" x2="101.2152" y1="100.2178" y2="92.2388" /><line stroke="rgb(0%,0%,0%)" stroke-width="1" x1="101.2152" x2="108.8451" y1="92.2388" y2="92.2388" /><line stroke="rgb(0%,0%,0%)" stroke-width="1" x1="108.8451" x2="108.8451" y1="92.2388" y2="84.2598" /><line stroke="rgb(0%,0%,0%)" stroke-width="1" x1="108.8451" x2="101.2152" y1="84.2598" y2="84.2598" /><line stroke="rgb(0%,0%,0%)" stroke-width="1" x1="101.2152" x2="101.2152" y1="84.2598" y2="76.2808" /><line stroke="rgb(0%,0%,0%)" stroke-width="1" x1="101.2152" x2="108.8451" y1="76.2808" y2="76.2808" /><line stroke="rgb(0%,0%,0%)" stroke-width="1" x1="108.8451" x2="108.8451" y1="76.2808" y2="68.3018" /><line stroke="rgb(0%,0%,0%)" stroke-width="1" x1="108.8451" x2="108.8451" y1="68.3018" y2="62.8661" /><line stroke="rgb(0%,0%,0%)" stroke-width="1" x1="108.8451" x2="50.0" y1="155.8215" y2="155.8215" /><line stroke="rgb(0%,0%,0%)" stroke-width="1" x1="50.0" x2="50.0" y1="155.8215" y2="148.0919" /><line stroke="rgb(0%,0%,0%)" stroke-width="1" x1="50.0" x2="42.4199" y1="148.0919" y2="148.0919" /><line stroke="rgb(0%,0%,0%)" stroke-width="1" x1="42.4199" x2="42.4698" y1="148.0919" y2="140.1129" /><line stroke="rgb(0%,0%,0%)" stroke-width="1" x1="42.4698" x2="50.0" y1="140.1129" y2="140.1129" /><line stroke="rgb(0%,0%,0%)" stroke-width="1" x1="50.0" x2="50.0" y1="140.1129" y2="132.1339" /><line stroke="rgb(0%,0%,0%)" stroke-width="1" x1="50.0" x2="42.4199" y1="132.1339" y2="132.1339" /><line stroke="rgb(0%,0%,0%)" stroke-width="1" x1="42.4199" x2="42.4698" y1="132.1339" y2="124.1549" /><line stroke="rgb(0%,0%,0%)" stroke-width="1" x1="42.4698" x2="50.0" y1="124.1549" y2="124.1549" /><line stroke="rgb(0%,0%,0%)" stroke-width="1" x1="50.0" x2="50.0" y1="124.1549" y2="116.1759" /><line stroke="rgb(0%,0%,0%)" stroke-width="1" x1="50.0" x2="42.4199" y1="116.1759" y2="116.1759" /><line stroke="rgb(0%,0%,0%)" stroke-width="1" x1="42.4199" x2="42.4698" y1="116.1759" y2="108.1969" /><line stroke="rgb(0%,0%,0%)" stroke-width="1" x1="42.4698" x2="50.0" y1="108.1969" y2="108.1969" /><line stroke="rgb(0%,0%,0%)" stroke-width="1" x1="50.0" x2="50.0" y1="108.1969" y2="100.2178" /><line stroke="rgb(0%,0%,0%)" stroke-width="1" x1="50.0" x2="42.4199" y1="100.2178" y2="100.2178" /><line stroke="rgb(0%,0%,0%)" stroke-width="1" x1="42.4199" x2="42.4698" y1="100.2178" y2="92.2388" /><line stroke="rgb(0%,0%,0%)" stroke-width="1" x1="42.4698" x2="50.0" y1="92.2388" y2="92.2388" /><line stroke="rgb(0%,0%,0%)" stroke-width="1" x1="50.0" x2="50.0" y1="92.2388" y2="84.2598" /><line stroke="rgb(0%,0%,0%)" stroke-width="1" x1="50.0" x2="42.4199" y1="84.2598" y2="84.2598" /><line stroke="rgb(0%,0%,0%)" stroke-width="1" x1="42.4199" x2="42.4698" y1="84.2598" y2="76.2808" /><line stroke="rgb(0%,0%,0%)" stroke-width="1" x1="42.4698" x2="50.0" y1="76.2808" y2="76.2808" /><line stroke="rgb(0%,0%,0%)" stroke-width="1" x1="50.0" x2="50.0" y1="76.2808" y2="68.3018" /><line stroke="rgb(0%,0%,0%)" stroke-width="1" x1="50.0" x2="50.0" y1="68.3018" y2="62.8661" /><rect fill="none" height="0.4987" stroke="rgb(30%,30%,30%)" stroke-width="1" width="58.8451" x="50.0" y="147.8425" /><rect fill="none" height="0.4987" stroke="rgb(30%,30%,30%)" stroke-width="1" width="58.8451" x="50.0" y="139.8635" /><rect fill="none" height="0.4987" stroke="rgb(30%,30%,30%)" stroke-width="1" width="58.8451" x="50.0" y="131.8845" /><rect fill="none" height="0.4987" stroke="rgb(30%,30%,30%)" stroke-width="1" width="58.8451" x="50.0" y="123.9055" /><rect fill="none" height="0.4987" stroke="rgb(30%,30%,30%)" stroke-width="1" width="58.8451" x="50.0" y="115.9265" /><rect fill="none" height="0.4987" stroke="rgb(30%,30%,30%)" stroke-width="1" width="58.8451" x="50.0" y="107.9475" /><rect fill="none" height="0.4987" stroke="rgb(30%,30%,30%)" stroke-width="1" width="58.8451" x="50.0" y="99.9685" /><rect fill="none" height="0.4987" stroke="rgb(30%,30%,30%)" stroke-width="1" width="58.8451" x="50.0" y="91.9895" /><rect fill="none" height="0.4987" stroke="rgb(30%,30%,30%)" stroke-width="1" width="58.8451" x="50.0" y="84.0105" /><rect fill="none" height="0.4987" stroke="rgb(30%,30%,30%)" stroke-width="1" width="58.8451" x="50.0" y="76.0315" /><rect fill="none" height="0.4987" stroke="rgb(30%,30%,30%)" stroke-width="1" width="58.8451" x="50.0" y="68.0525" /><polygon fill="none" points="56.3863,60.0735 102.4588,60.0735 103.5993,60.5722 55.2459,60.5722 56.3863,60.0735" stroke="rgb(30%,30%,30%)" stroke-width="1" /><polygon fill="none" points="74.6329,52.0945 84.2123,52.0945 85.3527,52.5932 73.4924,52.5932 74.6329,52.0945" stroke="rgb(30%,30%,30%)" stroke-width="1" /><line stroke="rgb(0%,0%,0%)" stroke-width="1" x1="158.8451" x2="249.9055" y1="50.0" y2="50.0" /><line stroke="rgb(0%,0%,0%)" stroke-width="1" x1="249.9055" x2="249.9055" y1="142.9554" y2="135.2257" /><line stroke="rgb(0%,0%,0%)" stroke-width="1" x1="249.9055" x2="242.2756" y1="135.2257" y2="135.2257" /><line stroke="rgb(0%,0%,0%)" stroke-width="1" x1="242.2756" x2="242.2756" y1="135.2257" y2="127.2467" /><line stroke="rgb(0%,0%,0%)" stroke-width="1" x1="242.2756" x2="249.9055" y1="127.2467" y2="127.2467" /><line stroke="rgb(0%,0%,0%)" stroke-width="1" x1="249.9055" x2="249.9055" y1="127.2467" y2="119.2677" /><line stroke="rgb(0%,0%,0%)" stroke-width="1" x1="249.9055" x2="242.2756" y1="119.2677" y2="119.2677" /><line stroke="rgb(0%,0%,0%)" stroke-width="1" x1="242.2756" x2="242.2756" y1="119.2677" y2="111.2887" /><line stroke="rgb(0%,0%,0%)" stroke-width="1" x1="242.2756" x2="249.9055" y1="111.2887" y2="111.2887" /><line stroke="rgb(0%,0%,0%)" stroke-width="1" x1="249.9055" x2="249.9055" y1="111.2887" y2="103.3097" /><line stroke="rgb(0%,0%,0%)" stroke-width="1" x1="249.9055" x2="242.2756" y1="103.3097" y2="103.3097" /><line stroke="rgb(0%,0%,0%)" stroke-width="1" x1="242.2756" x2="242.2756" y1="103.3097" y2="95.3307" /><line stroke="rgb(0%,0%,0%)" stroke-width="1" x1="242.2756" x2="249.9055" y1="95.3307" y2="95.3307" /><line stroke="rgb(0%,0%,0%)" stroke-width="1" x1="249.9055" x2="249.9055" y1="95.3307" y2="87.3517" /><line stroke="rgb(0%,0%,0%)" stroke-width="1" x1="249.9055" x2="242.2756" y1="87.3517" y2="87.3517" /><line stroke="rgb(0%,0%,0%)" stroke-width="1" x1="242.2756" x2="242.2756" y1="87.3517" y2="79.3727" /><line stroke="rgb(0%,0%,0%)" stroke-width="1" x1="242.2756" x2="249.9055" y1="79.3727" y2="79.3727" /><line stroke="rgb(0%,0%,0%)" stroke-width="1" x1="249.9055" x2="249.9055" y1="79.3727" y2="71.3937" /><line stroke="rgb(0%,0%,0%)" stroke-width="1" x1="249.9055" x2="242.2756" y1="71.3937" y2="71.3937" /><line stroke="rgb(0%,0%,0%)" stroke-width="1" x1="242.2756" x2="242.2756" y1="71.3937" y2="63.4147" /><line stroke="rgb(0%,0%,0%)" stroke-width="1" x1="242.2756" x2="249.9055" y1="63.4147" y2="63.4147" /><line stroke="rgb(0%,0%,0%)" stroke-width="1" x1="249.9055" x2="249.9055" y1="63.4147" y2="55.4357" /><line stroke="rgb(0%,0%,0%)" stroke-width="1" x1="249.9055" x2="249.9055" y1="55.4357" y2="50.0" /><line stroke="rgb(0%,0%,0%)" stroke-width="1" x1="249.9055" x2="158.8451" y1="142.9554" y2="142.9554" /><line stroke="rgb(0%,0%,0%)" stroke-width="1" x1="158.8451" x2="158.8451" y1="142.9554" y2="135.2257" /><line stroke="rgb(0%,0%,0%)" stroke-width="1" x1="158.8451" x2="151.2651" y1="135.2257" y2="135.2257" /><line stroke="rgb(0%,0%,0%)" stroke-width="1" x1="151.2651" x2="151.315" y1="135.2257" y2="127.2467" /><line stroke="rgb(0%,0%,0%)" stroke-width="1" x1="151.315" x2="158.8451" y1="127.2467" y2="127.2467" /><line stroke="rgb(0%,0%,0%)" stroke-width="1" x1="158.8451" x2="158.8451" y1="127.2467" y2="119.2677" /><line stroke="rgb(0%,0%,0%)" stroke-width="1" x1="158.8451" x2="151.2651" y1="119.2677" y2="119.2677" /><line stroke="rgb(0%,0%,0%)" stroke-width="1" x1="151.2651" x2="151.315" y1="119.2677" y2="111.2887" /><line stroke="rgb(0%,0%,0%)" stroke-width="1" x1="151.315" x2="158.8451" y1="111.2887" y2="111.2887" /><line stroke="rgb(0%,0%,0%)" stroke-width="1" x1="158.8451" x2="158.8451" y1="111.2887" y2="103.3097" /><line stroke="rgb(0%,0%,0%)" stroke-width="1" x1="158.8451" x2="151.2651" y1="103.3097" y2="103.3097" /><line stroke="rgb(0%,0%,0%)" stroke-width="1" x1="151.2651" x2="151.315" y1="103.3097" y2="95.3307" /><line stroke="rgb(0%,0%,0%)" stroke-width="1" x1="151.315" x2="158.8451" y1="95.3307" y2="95.3307" /><line stroke="rgb(0%,0%,0%)" stroke-width="1" x1="158.8451" x2="158.8451" y1="95.3307" y2="87.3517" /><line stroke="rgb(0%,0%,0%)" stroke-width="1" x1="158.8451" x2="151.2651" y1="87.3517" y2="87.3517" /><line stroke="rgb(0%,0%,0%)" stroke-width="1" x1="151.2651" x2="151.315" y1="87.3517" y2="79.3727" /><line stroke="rgb(0%,0%,0%)" stroke-width="1" x1="151.315" x2="158.8451" y1="79.3727" y2="79.3727" /><line stroke="rgb(0%,0%,0%)" stroke-width="1" x1="158.8451" x2="158.8451" y1="79.3727" y2="71.3937" /><line stroke="rgb(0%,0%,0%)" stroke-width="1" x1="158.8451" x2="151.2651" y1="71.3937" y2="71.3937" /><line stroke="rgb(0%,0%,0%)" stroke-width="1" x1="151.2651" x2="151.315" y1="71.3937" y2="63.4147" /><line stroke="rgb(0%,0%,0%)" stroke-width="1" x1="151.315" x2="158.8451" y1="63.4147" y2="63.4147" /><line stroke="rgb(0%,0%,0%)" stroke-width="1" x1="158.8451" x2="158.8451" y1="63.4147" y2="55.4357" /><line stroke="rgb(0%,0%,0%)" stroke-width="1" x1="158.8451" x2="158.8451" y1="55.4357" y2="50.0" /><rect fill="none" height="27.6772" stroke="rgb(0%,0%,0%)" stroke-width="1" width="19.9475" x="194.5013" y="52.4934" /><rect fill="none" height="0.4987" stroke="rgb(30%,30%,30%)" stroke-width="1" width="91.0604" x="158.8451" y="134.9764" /><rect fill="none" height="0.4987" stroke="rgb(30%,30%,30%)" stroke-width="1" width="91.0604" x="158.8451" y="126.9974" /><rect fill="none" height="0.4987" stroke="rgb(30%,30%,30%)" stroke-width="1" width="91.0604" x="158.8451" y="119.0184" /><rect fill="none" height="0.4987" stroke="rgb(30%,30%,30%)" stroke-width="1" width="91.0604" x="158.8451" y="111.0394" /><rect fill="none" height="0.4987" stroke="rgb(30%,30%,30%)" stroke-width="1" width="91.0604" x="158.8451" y="103.0604" /><rect fill="none" height="0.4987" stroke="rgb(30%,30%,30%)" stroke-width="1" width="91.0604" x="158.8451" y="95.0814" /><rect fill="none" height="0.4987" stroke="rgb(30%,30%,30%)" stroke-width="1" width="91.0604" x="158.8451" y="87.1024" /><rect fill="none" height="0.4987" stroke="rgb(30%,30%,30%)" stroke-width="1" width="35.6562" x="158.8451" y="79.1234" /><rect fill="none" height="0.4987" stroke="rgb(30%,30%,30%)" stroke-width="1" width="35.4567" x="214.4488" y="79.1234" /><rect fill="none" height="0.4987" stroke="rgb(30%,30%,30%)" stroke-width="1" width="35.6562" x="158.8451" y="71.1444" /><rect fill="none" height="0.4987" stroke="rgb(30%,30%,30%)" stroke-width="1" width="35.4567" x="214.4488" y="71.1444" /><rect fill="none" height="0.4987" stroke="rgb(30%,30%,30%)" stroke-width="1" width="35.6562" x="158.8451" y="63.1654" /><rect fill="none" height="0.4987" stroke="rgb(30%,30%,30%)" stroke-width="1" width="35.4567" x="214.4488" y="63.1654" /><rect fill="none" height="0.4987" stroke="rgb(30%,30%,30%)" stroke-width="1" width="35.6562" x="158.8451" y="55.1864" /><rect fill="none" height="0.4987" stroke="rgb(30%,30%,30%)" stroke-width="1" width="35.4567" x="214.4488" y="55.1864" /><line stroke="rgb(0%,0%,0%)" stroke-width="1" x1="299.9055" x2="329.3281" y1="62.8661" y2="50.0" /><line stroke="rgb(0%,0%,0%)" stroke-width="1" x1="329.3281" x2="358.7507" y1="50.0" y2="62.8661" /><line stroke="rgb(0%,0%,0%)" stroke-width="1" x1="358.7507" x2="358.7507" y1="155.8215" y2="148.0919" /><line stroke="rgb(0%,0%,0%)" stroke-width="1" x1="358.7507" x2="351.1207" y1="148.0919" y2="148.0919" /><line stroke="rgb(0%,0%,0%)" stroke-width="1" x1="351.1207" x2="351.1207" y1="148.0919" y2="140.1129" /><line stroke="rgb(0%,0%,0%)" stroke-width="1" x1="351.1207" x2="358.7507" y1="140.1129" y2="140.1129" /><line stroke="rgb(0%,0%,0%)" stroke-width="1" x1="358.7507" x2="358.7507" y1="140.1129" y2="132.1339" /><line stroke="rgb(0%,0%,0%)" stroke-width="1" x1="358.7507" x2="351.1207" y1="132.1339" y2="132.1339" /><line stroke="rgb(0%,0%,0%)" stroke-width="1" x1="351.1207" x2="351.1207" y1="132.1339" y2="124.1549" /><line stroke="rgb(0%,0%,0%)" stroke-width="1" x1="351.1207" x2="358.7507" y1="124.1549" y2="124.1549" /><line stroke="rgb(0%,0%,0%)" stroke-width="1" x1="358.7507" x2="358.7507" y1="124.1549" y2="116.1759" /><line stroke="rgb(0%,0%,0%)" stroke-width="1" x1="358.7507" x2="351.1207" y1="116.1759" y2="116.1759" /><line stroke="rgb(0%,0%,0%)" stroke-width="1" x1="351.1207" x2="351.1207" y1="116.1759" y2="108.1969" /><line stroke="rgb(0%,0%,0%)" stroke-width="1" x1="351.1207" x2="358.7507" y1="108.1969" y2="108.1969" /><line stroke="rgb(0%,0%,0%)" stroke-width="1" x1="358.7507" x2="358.7507" y1="108.1969" y2="100.2178" /><line stroke="rgb(0%,0%,0%)" stroke-width="1" x1="358.7507" x2="351.1207" y1="100.2178" y2="100.2178" /><line stroke="rgb(0%,0%,0%)" stroke-width="1" x1="351.1207" x2="351.1207" y1="100.2178" y2="92.2388" /><line stroke="rgb(0%,0%,0%)" stroke-width="1" x1="351.1207" x2="358.7507" y1="92.2388" y2="92.2388" /><line stroke="rgb(0%,0%,0%)" stroke-width="1" x1="358.7507" x2="358.7507" y1="92.2388" y2="84.2598" /><line stroke="rgb(0%,0%,0%)" stroke-width="1" x1="358.7507" x2="351.1207" y1="84.2598" y2="84.2598" /><line stroke="rgb(0%,0%,0%)" stroke-width="1" x1="351.1207" x2="351.1207" y1="84.2598" y2="76.2808" /><line stroke="rgb(0%,0%,0%)" stroke-width="1" x1="351.1207" x2="358.7507" y1="76.2808" y2="76.2808" /><line stroke="rgb(0%,0%,0%)" stroke-width="1" x1="358.7507" x2="358.7507" y1="76.2808" y2="68.3018" /><line stroke="rgb(0%,0%,0%)" stroke-width="1" x1="358.7507" x2="358.7507" y1="68.3018" y2="62.8661" /><line stroke="rgb(0%,0%,0%)" stroke-width="1" x1="358.7507" x2="299.9055" y1="155.8215" y2="155.8215" /><line stroke="rgb(0%,0%,0%)" stroke-width="1" x1="299.9055" x2="299.9055" y1="155.8215" y2="148.0919" /><line stroke="rgb(0%,0%,0%)" stroke-width="1" x1="299.9055" x2="292.3255" y1="148.0919" y2="148.0919" /><line stroke="rgb(0%,0%,0%)" stroke-width="1" x1="292.3255" x2="292.3753" y1="148.0919" y2="140.1129" /><line stroke="rgb(0%,0%,0%)" stroke-width="1" x1="292.3753" x2="299.9055" y1="140.1129" y2="140.1129" /><line stroke="rgb(0%,0%,0%)" stroke-width="1" x1="299.9055" x2="299.9055" y1="140.1129" y2="132.1339" /><line stroke="rgb(0%,0%,0%)" stroke-width="1" x1="299.9055" x2="292.3255" y1="132.1339" y2="132.1339" /><line stroke="rgb(0%,0%,0%)" stroke-width="1" x1="292.3255" x2="292.3753" y1="132.1339" y2="124.1549" /><line stroke="rgb(0%,0%,0%)" stroke-width="1" x1="292.3753" x2="299.9055" y1="124.1549" y2="124.1549" /><line stroke="rgb(0%,0%,0%)" stroke-width="1" x1="299.9055" x2="299.9055" y1="124.1549" y2="116.1759" /><line stroke="rgb(0%,0%,0%)" stroke-width="1" x1="299.9055" x2="292.3255" y1="116.1759" y2="116.1759" /><line stroke="rgb(0%,0%,0%)" stroke-width="1" x1="292.3255" x2="292.3753" y1="116.1759" y2="108.1969" /><line stroke="rgb(0%,0%,0%)" stroke-width="1" x1="292.3753" x2="299.9055" y1="108.1969" y2="108.1969" /><line stroke="rgb(0%,0%,0%)" stroke-width="1" x1="299.9055" x2="299.9055" y1="108.1969" y2="100.2178" /><line stroke="rgb(0%,0%,0%)" stroke-width="1" x1="299.9055" x2="292.3255" y1="100.2178" y2="100.2178" /><line stroke="rgb(0%,0%,0%)" stroke-width="1" x1="292.3255" x2="292.3753" y1="100.2178" y2="92.2388" /><line stroke="rgb(0%,0%,0%)" stroke-width="1" x1="292.3753" x2="299.9055" y1="92.2388" y2="92.2388" /><line stroke="rgb(0%,0%,0%)" stroke-width="1" x1="299.9055" x2="299.9055" y1="92.2388" y2="84.2598" /><line stroke="rgb(0%,0%,0%)" stroke-width="1" x1="299.9055" x2="292.3255" y1="84.2598" y2="84.2598" /><line stroke="rgb(0%,0%,0%)" stroke-width="1" x1="292.3255" x2="292.3753" y1="84.2598" y2="76.2808" /><line stroke="rgb(0%,0%,0%)" stroke-width="1" x1="292.3753" x2="299.9055" y1="76.2808" y2="76.2808" /><line stroke="rgb(0%,0%,0%)" stroke-width="1" x1="299.9055" x2="299.9055" y1="76.2808" y2="68.3018" /><line stroke="rgb(0%,0%,0%)" stroke-width="1" x1="299.9055" x2="299.9055" y1="68.3018" y2="62.8661" /><rect fill="none" height="0.4987" stroke="rgb(30%,30%,30%)" stroke-width="1" width="9.4751" x="299.9055" y="147.8425" /><rect fill="none" height="0.4987" stroke="rgb(30%,30%,30%)" stroke-width="1" width="9.4751" x="349.2756" y="147.8425" /><rect fill="none" height="0.4987" stroke="rgb(30%,30%,30%)" stroke-width="1" width="9.4751" x="299.9055" y="139.8635" /><rect fill="none" height="0.4987" stroke="rgb(30%,30%,30%)" stroke-width="1" width="9.4751" x="349.2756" y="139.8635" /><rect fill="none" height="0.4987" stroke="rgb(30%,30%,30%)" stroke-width="1" width="9.4751" x="299.9055" y="131.8845" /><rect fill="none" height="0.4987" stroke="rgb(30%,30%,30%)" stroke-width="1" width="9.4751" x="349.2756" y="131.8845" /><rect fill="none" height="0.4987" stroke="rgb(30%,30%,30%)" stroke-width="1" width="9.4751" x="299.9055" y="123.9055" /><rect fill="none" height="0.4987" stroke="rgb(30%,30%,30%)" stroke-width="1" width="9.4751" x="349.2756" y="123.9055" /><rect fill="none" height="0.4987" stroke="rgb(30%,30%,30%)" stroke-width="1" width="9.4751" x="299.9055" y="115.9265" /><rect fill="none" height="0.4987" stroke="rgb(30%,30%,30%)" stroke-width="1" width="9.4751" x="349.2756" y="115.9265" /><rect fill="none" height="0.4987" stroke="rgb(30%,30%,30%)" stroke-width="1" width="9.4751" x="299.9055" y="107.9475" /><rect fill="none" height="0.4987" stroke="rgb(30%,30%,30%)" stroke-width="1" width="9.4751" x="349.2756" y="107.9475" /><rect fill="none" height="0.4987" stroke="rgb(30%,30%,30%)" stroke-width="1" width="9.4751" x="299.9055" y="99.9685" /><rect fill="none" height="0.4987" stroke="rgb(30%,30%,30%)" stroke-width="1" width="9.4751" x="349.2756" y="99.9685" /><rect fill="none" height="0.4987" stroke="rgb(30%,30%,30%)" stroke-width="1" width="9.4751" x="299.9055" y="91.9895" /><rect fill="none" height="0.4987" stroke="rgb(30%,30%,30%)" stroke-width="1" width="9.4751" x="349.2756" y="91.9895" /><rect fill="none" height="0.4987" stroke="rgb(30%,30%,30%)" stroke-width="1" width="9.4751" x="299.9055" y="84.0105" /><rect fill="none" height="0.4987" stroke="rgb(30%,30%,30%)" stroke-width="1" width="9.4751" x="349.2756" y="84.0105" /><rect fill="none" height="0.4987" stroke="rgb(30%,30%,30%)" stroke-width="1" width="9.4751" x="299.9055" y="76.0315" /><rect fill="none" height="0.4987" stroke="rgb(30%,30%,30%)" stroke-width="1" width="9.4751" x="349.2756" y="76.0315" /><rect fill="none" height="0.4987" stroke="rgb(30%,30%,30%)" stroke-width="1" width="9.4751" x="299.9055" y="68.0525" /><rect fill="none" height="0.4987" stroke="rgb(30%,30%,30%)" stroke-width="1" width="9.4751" x="349.2756" y="68.0525" /><polygon fill="none" points="306.2918,60.0735 352.3644,60.0735 353.5048,60.5722 305.1514,60.5722 306.2918,60.0735" stroke="rgb(30%,30%,30%)" stroke-width="1" /><polygon fill="none" points="324.5384,52.0945 334.1178,52.0945 335.2582,52.5932 323.398,52.5932 324.5384,52.0945" stroke="rgb(30%,30%,30%)" stroke-width="1" /><rect fill="none" height="89.7638" stroke="rgb(30%,30%,30%)" stroke-width="1" width="0.4987" x="318.1076" y="66.0577" /><rect fill="none" height="89.7638" stroke="rgb(30%,30%,30%)" stroke-width="1" width="0.4987" x="325.5879" y="66.0577" /><rect fill="none" height="89.7638" stroke="rgb(30%,30%,30%)" stroke-width="1" width="0.4987" x="333.0682" y="66.0577" /><rect fill="none" height="89.7638" stroke="rgb(30%,30%,30%)" stroke-width="1" width="0.4987" x="340.5486" y="66.0577" /><polygon fill="none" points="349.2756,79.5223 334.315,80.769 349.2756,82.0157" stroke="rgb(30%,30%,30%)" stroke-width="1" /><polygon fill="none" points="349.2756,110.9396 334.315,112.1864 349.2756,113.4331" stroke="rgb(30%,30%,30%)" stroke-width="1" /><polygon fill="none" points="349.2756,142.357 334.315,143.6037 349.2756,144.8504" stroke="rgb(30%,30%,30%)" stroke-width="1" /><polygon fill="none" points="309.1312,155.8215 309.6299,155.8215 309.6299,66.0577 309.1312,66.0577 309.1312,155.8215" stroke="rgb(30%,30%,30%)" stroke-width="1" /><polygon fill="none" points="309.3806,65.8084 349.2756,65.8084 349.2756,66.3071 309.3806,66.3071 309.3806,65.8084" stroke="rgb(30%,30%,30%)" stroke-width="1" /><polygon fill="none" points="349.0262,66.0577 349.5249,66.0577 349.5249,155.8215 349.0262,155.8215 349.0262,66.0577" stroke="rgb(30%,30%,30%)" stroke-width="1" /><line stroke="rgb(0%,0%,0%)" stroke-width="1" x1="50.0" x2="141.0604" y1="205.8215" y2="205.8215" /><line stroke="rgb(0%,0%,0%)" stroke-width="1" x1="141.0604" x2="141.0604" y1="298.7769" y2="291.0472" /><line stroke="rgb(0%,0%,0%)" stroke-width="1" x1="141.0604" x2="133.4304" y1="291.0472" y2="291.0472" /><line stroke="rgb(0%,0%,0%)" stroke-width="1" x1="133.4304" x2="133.4304" y1="291.0472" y2="283.0682" /><line stroke="rgb(0%,0%,0%)" stroke-width="1" x1="133.4304" x2="141.0604" y1="283.0682" y2="283.0682" /><line stroke="rgb(0%,0%,0%)" stroke-width="1" x1="141.0604" x2="141.0604" y1="283.0682" y2="275.0892" /><line stroke="rgb(0%,0%,0%)" stroke-width="1" x1="141.0604" x2="133.4304" y1="275.0892" y2="275.0892" /><line stroke="rgb(0%,0%,0%)" stroke-width="1" x1="133.4304" x2="133.4304" y1="275.0892" y2="267.1102" /><line stroke="rgb(0%,0%,0%)" stroke-width="1" x1="133.4304" x2="141.0604" y1="267.1102" y2="267.1102" /><line stroke="rgb(0%,0%,0%)" stroke-width="1" x1="141.0604" x2="141.0604" y1="267.1102" y2="259.1312" /><line stroke="rgb(0%,0%,0%)" stroke-width="1" x1="141.0604" x2="133.4304" y1="259.1312" y2="259.1312" /><line stroke="rgb(0%,0%,0%)" stroke-width="1" x1="133.4304" x2="133.4304" y1="259.1312" y2="251.1522" /><line stroke="rgb(0%,0%,0%)" stroke-width="1" x1="133.4304" x2="141.0604" y1="251.1522" y2="251.1522" /><line stroke="rgb(0%,0%,0%)" stroke-width="1" x1="141.0604" x2="141.0604" y1="251.1522" y2="243.1732" /><line stroke="rgb(0%,0%,0%)" stroke-width="1" x1="141.0604" x2="133.4304" y1="243.1732" y2="243.1732" /><line stroke="rgb(0%,0%,0%)" stroke-width="1" x1="133.4304" x2="133.4304" y1="243.1732" y2="235.1942" /><line stroke="rgb(0%,0%,0%)" stroke-width="1" x1="133.4304" x2="141.0604" y1="235.1942" y2="235.1942" /><line stroke="rgb(0%,0%,0%)" stroke-width="1" x1="141.0604" x2="141.0604" y1="235.1942" y2="227.2152" /><line stroke="rgb(0%,0%,0%)" stroke-width="1" x1="141.0604" x2="133.4304" y1="227.2152" y2="227.2152" /><line stroke="rgb(0%,0%,0%)" stroke-width="1" x1="133.4304" x2="133.4304" y1="227.2152" y2="219.2362" /><line stroke="rgb(0%,0%,0%)" stroke-width="1" x1="133.4304" x2="141.0604" y1="219.2362" y2="219.2362" /><line stroke="rgb(0%,0%,0%)" stroke-width="1" x1="141.0604" x2="141.0604" y1="219.2362" y2="211.2572" /><line stroke="rgb(0%,0%,0%)" stroke-width="1" x1="141.0604" x2="141.0604" y1="211.2572" y2="205.8215" /><line stroke="rgb(0%,0%,0%)" stroke-width="1" x1="141.0604" x2="50.0" y1="298.7769" y2="298.7769" /><line stroke="rgb(0%,0%,0%)" stroke-width="1" x1="50.0" x2="50.0" y1="298.7769" y2="291.0472" /><line stroke="rgb(0%,0%,0%)" stroke-width="1" x1="50.0" x2="42.4199" y1="291.0472" y2="291.0472" /><line stroke="rgb(0%,0%,0%)" stroke-width="1" x1="42.4199" x2="42.4698" y1="291.0472" y2="283.0682" /><line stroke="rgb(0%,0%,0%)" stroke-width="1" x1="42.4698" x2="50.0" y1="283.0682" y2="283.0682" /><line stroke="rgb(0%,0%,0%)" stroke-width="1" x1="50.0" x2="50.0" y1="283.0682" y2="275.0892" /><line stroke="rgb(0%,0%,0%)" stroke-width="1" x1="50.0" x2="42.4199" y1="275.0892" y2="275.0892" /><line stroke="rgb(0%,0%,0%)" stroke-width="1" x1="42.4199" x2="42.4698" y1="275.0892" y2="267.1102" /><line stroke="rgb(0%,0%,0%)" stroke-width="1" x1="42.4698" x2="50.0" y1="267.1102" y2="267.1102" /><line stroke="rgb(0%,0%,0%)" stroke-width="1" x1="50.0" x2="50.0" y1="267.1102" y2="259.1312" /><line stroke="rgb(0%,0%,0%)" stroke-width="1" x1="50.0" x2="42.4199" y1="259.1312" y2="259.1312" /><line stroke="rgb(0%,0%,0%)" stroke-width="1" x1="42.4199" x2="42.4698" y1="259.1312" y2="251.1522" /><line stroke="rgb(0%,0%,0%)" stroke-width="1" x1="42.4698" x2="50.0" y1="251.1522" y2="251.1522" /><line stroke="rgb(0%,0%,0%)" stroke-width="1" x1="50.0" x2="50.0" y1="251.1522" y2="243.1732" /><line stroke="rgb(0%,0%,0%)" stroke-width="1" x1="50.0" x2="42.4199" y1="243.1732" y2="243.1732" /><line stroke="rgb(0%,0%,0%)" stroke-width="1" x1="42.4199" x2="42.4698" y1="243.1732" y2="235.1942" /><line stroke="rgb(0%,0%,0%)" stroke-width="1" x1="42.4698" x2="50.0" y1="235.1942" y2="235.1942" /><line stroke="rgb(0%,0%,0%)" stroke-width="1" x1="50.0" x2="50.0" y1="235.1942" y2="227.2152" /><line stroke="rgb(0%,0%,0%)" stroke-width="1" x1="50.0" x2="42.4199" y1="227.2152" y2="227.2152" /><line stroke="rgb(0%,0%,0%)" stroke-width="1" x1="42.4199" x2="42.4698" y1="227.2152" y2="219.2362" /><line stroke="rgb(0%,0%,0%)" stroke-width="1" x1="42.4698" x2="50.0" y1="219.2362" y2="219.2362" /><line stroke="rgb(0%,0%,0%)" stroke-width="1" x1="50.0" x2="50.0" y1="219.2362" y2="211.2572" /><line stroke="rgb(0%,0%,0%)" stroke-width="1" x1="50.0" x2="50.0" y1="211.2572" y2="205.8215" /><rect fill="none" height="0.4987" stroke="rgb(30%,30%,30%)" stroke-width="1" width="91.0604" x="50.0" y="290.7979" /><rect fill="none" height="0.4987" stroke="rgb(30%,30%,30%)" stroke-width="1" width="91.0604" x="50.0" y="282.8189" /><rect fill="none" height="0.4987" stroke="rgb(30%,30%,30%)" stroke-width="1" width="91.0604" x="50.0" y="274.8399" /><rect fill="none" height="0.4987" stroke="rgb(30%,30%,30%)" stroke-width="1" width="91.0604" x="50.0" y="266.8609" /><rect fill="none" height="0.4987" stroke="rgb(30%,30%,30%)" stroke-width="1" width="91.0604" x="50.0" y="258.8819" /><rect fill="none" height="0.4987" stroke="rgb(30%,30%,30%)" stroke-width="1" width="91.0604" x="50.0" y="250.9029" /><rect fill="none" height="0.4987" stroke="rgb(30%,30%,30%)" stroke-width="1" width="91.0604" x="50.0" y="242.9239" /><rect fill="none" height="0.4987" stroke="rgb(30%,30%,30%)" stroke-width="1" width="91.0604" x="50.0" y="234.9449" /><rect fill="none" height="0.4987" stroke="rgb(30%,30%,30%)" stroke-width="1" width="91.0604" x="50.0" y="226.9659" /><rect fill="none" height="0.4987" stroke="rgb(30%,30%,30%)" stroke-width="1" width="91.0604" x="50.0" y="218.9869" /><rect fill="none" height="0.4987" stroke="rgb(30%,30%,30%)" stroke-width="1" width="91.0604" x="50.0" y="211.0079" /><rect fill="none" height="37.0996" stroke="rgb(0%,0%,0%)" stroke-width="1" width="96.0472" x="191.0604" y="205.8215" /><rect fill="none" height="37.0996" stroke="rgb(0%,0%,0%)" stroke-width="1" width="96.0472" x="337.1076" y="205.8215" /></svg>